<svg width="135" height="26" viewBox="0 0 135 26" fill="none" xmlns="http://www.w3.org/2000/svg">
<path d="M12.3073 0.5C13.448 0.5 14.5019 0.587374 15.4688 0.849497C16.4357 1.02425 17.2288 1.38467 17.935 1.82154C18.6412 2.25841 19.1627 2.88095 19.5212 3.67824C19.8689 4.47553 20.0536 5.44757 20.0536 6.50699C20.0536 7.74115 19.7928 8.80056 19.1735 9.59785C18.6412 10.3951 17.772 11.1051 16.7073 11.6293C18.2066 12.0662 19.3474 12.8635 20.0427 13.9229C20.738 14.9823 21.1835 16.3038 21.1835 17.811C21.1835 19.0452 20.9227 20.1046 20.4773 20.9893C20.0427 21.8739 19.3365 22.6712 18.5434 23.1955C17.7503 23.7307 16.7834 24.1675 15.7295 24.4296C14.6757 24.6918 13.6218 24.8665 12.568 24.8665L0.791016 24.8884V0.5H12.3073ZM11.6011 10.3951C12.568 10.3951 13.3611 10.133 13.9695 9.68523C14.5779 9.23743 14.8495 8.45107 14.8495 7.47903C14.8495 6.94386 14.7626 6.41961 14.5888 6.07011C14.4149 5.72062 14.1542 5.44757 13.7957 5.18545C13.448 5.0107 13.0895 4.83595 12.6549 4.74858C12.2203 4.6612 11.7749 4.6612 11.2534 4.6612H6.15802V10.4061C6.15802 10.3951 11.6011 10.3951 11.6011 10.3951ZM11.8618 20.8255C12.3942 20.8255 12.9157 20.7381 13.3611 20.6507C13.7957 20.5633 14.2411 20.3886 14.5888 20.1155C14.9364 19.8425 15.208 19.5804 15.4688 19.1435C15.6426 18.7066 15.8165 18.1715 15.8165 17.5489C15.8165 16.3148 15.4688 15.4301 14.7626 14.8075C14.0564 14.2724 13.0895 14.0103 11.9487 14.0103H6.15802V20.8145H11.8618V20.8255ZM28.832 20.738C29.5382 21.4479 30.592 21.7974 31.9935 21.7974C32.9604 21.7974 33.8405 21.5353 34.5466 21.0875C35.2528 20.5523 35.6874 20.0281 35.8612 19.4929H40.1635C39.4573 21.6117 38.4035 23.119 37.002 24.091C35.6005 24.9757 33.9274 25.4999 31.9066 25.4999C30.5051 25.4999 29.2666 25.2378 28.1258 24.79C26.985 24.3531 26.105 23.7306 25.3119 22.8459C24.5188 22.0486 23.9104 21.0766 23.5519 19.9298C23.1173 18.783 22.9326 17.5488 22.9326 16.129C22.9326 14.8075 23.1065 13.5624 23.5519 12.4156C23.9973 11.2688 24.6057 10.2968 25.3988 9.41211C26.1919 8.61482 27.1589 7.9049 28.2127 7.46803C29.3535 7.03116 30.4942 6.75811 31.9066 6.75811C33.4059 6.75811 34.7205 7.02024 35.8612 7.64278C37.002 8.26532 37.882 8.96431 38.5882 10.0237C39.2944 10.9958 39.8159 12.1426 40.1744 13.3767C40.3482 14.6109 40.4351 15.856 40.3482 17.2649H27.6043C27.6043 18.7066 28.1258 20.0281 28.832 20.738ZM34.3728 11.4545C33.7535 10.8319 32.7866 10.4824 31.6459 10.4824C30.8528 10.4824 30.2444 10.6572 29.712 10.9193C29.1796 11.1814 28.832 11.5419 28.4843 11.8914C28.1367 12.2409 27.952 12.6886 27.8651 13.1255C27.7781 13.5624 27.6912 13.9228 27.6912 14.2723H35.6005C35.4267 12.9617 34.9812 12.077 34.3728 11.4545ZM26.6374 2.18188H36.4805V4.56283H26.6374V2.18188ZM47.2036 0.5V9.68523H47.2906C47.9098 8.62581 48.6921 7.9159 49.659 7.47902C50.6259 7.04215 51.5059 6.76911 52.4729 6.76911C53.7875 6.76911 54.8413 6.94386 55.6344 7.30428C56.4275 7.65377 57.1337 8.18894 57.5683 8.81148C58.0028 9.43403 58.3614 10.2204 58.5352 11.1051C58.709 11.9897 58.7959 12.9618 58.7959 14.1086V24.9757H53.9613V14.9932C53.9613 13.486 53.7005 12.4266 53.2551 11.7276C52.8097 11.0286 52.0383 10.6573 50.8975 10.6573C49.5829 10.6573 48.616 11.0941 48.0837 11.8041C47.4644 12.6013 47.2036 13.9229 47.2036 15.6922V24.9757H42.369V0.5H47.2036ZM62.3269 9.87102C62.8592 9.07373 63.4676 8.54948 64.2607 8.01431C65.0538 7.57744 65.9338 7.21702 66.9008 7.04227C67.8677 6.86753 68.8346 6.78015 69.8016 6.78015C70.6816 6.78015 71.5616 6.86753 72.5285 6.9549C73.4085 7.04227 74.2886 7.3044 74.9947 7.66482C75.7878 8.01431 76.3093 8.54948 76.8417 9.17202C77.2763 9.79457 77.5479 10.6792 77.5479 11.7386V21.0222C77.5479 21.8195 77.6348 22.6167 77.7217 23.3157C77.8086 24.0257 78.0694 24.6373 78.341 24.9977H73.4194C73.2456 24.8229 73.1587 24.4625 73.0717 24.2004C72.9848 23.9383 72.9848 23.5779 72.9848 23.3157C72.1917 24.113 71.3117 24.6373 70.2579 24.9977C69.204 25.3472 68.1502 25.4346 67.0963 25.4346C66.2163 25.4346 65.5101 25.3472 64.7279 25.0851C64.0217 24.9103 63.4133 24.5499 62.794 24.113C62.2617 23.6762 61.8271 23.141 61.4794 22.4311C61.2187 21.7212 61.0449 21.0222 61.0449 20.0501C61.0449 19.0781 61.2187 18.1934 61.5772 17.5709C61.9249 16.9483 62.3703 16.4241 62.8918 15.9763C63.4242 15.6268 64.1195 15.2664 64.8257 15.0916C65.5319 14.9169 66.2272 14.7421 67.0203 14.6548C67.7265 14.5674 68.4218 14.48 69.128 14.3926C69.8342 14.3053 70.4426 14.2179 70.9749 14.1305C71.5073 13.9558 71.9418 13.781 72.2895 13.508C72.6372 13.2459 72.7241 12.8854 72.7241 12.3612C72.7241 11.826 72.6372 11.3891 72.4633 11.127C72.2895 10.8649 72.0288 10.5919 71.7571 10.4171C71.4964 10.2424 71.1379 10.155 70.7902 10.0676C70.4426 9.98024 69.9971 9.98024 69.5625 9.98024C68.5956 9.98024 67.8894 10.155 67.3679 10.6028C66.8356 11.0396 66.4879 11.7496 66.401 12.6342H61.5664C61.5338 11.5421 61.8814 10.57 62.3269 9.87102ZM71.9092 16.7627C71.6485 16.85 71.29 16.9374 70.9423 17.0248C70.5947 17.1122 70.2361 17.1122 69.8016 17.1995C69.4539 17.2869 69.0085 17.2869 68.6608 17.3743C68.3131 17.4617 67.9546 17.549 67.607 17.6364C67.2593 17.7238 66.9008 17.8985 66.7269 18.0733C66.4662 18.248 66.2924 18.5102 66.1077 18.7832C65.8469 19.1327 65.8469 19.4931 65.8469 19.93C65.8469 20.3669 65.9338 20.7273 66.1077 20.9894C66.2815 21.2515 66.4553 21.5246 66.7269 21.6993C66.9877 21.8741 67.3462 21.9614 67.6939 22.0488C68.0415 22.1362 68.4001 22.1362 68.8346 22.1362C69.8016 22.1362 70.5077 21.9614 71.0292 21.6993C71.5616 21.3498 71.9093 20.9894 72.17 20.5525C72.4307 20.1157 72.6046 19.6679 72.6046 19.231C72.6915 18.7941 72.6915 18.4337 72.6915 18.1716V16.3149C72.4307 16.4896 72.17 16.6753 71.9092 16.7627ZM84.827 7.21702V9.69627H84.9139C85.5332 8.63686 86.3154 7.92694 87.2823 7.49007C88.2493 7.0532 89.3031 6.78015 90.2701 6.78015C91.5846 6.78015 92.6385 6.9549 93.4316 7.31532C94.3116 7.66482 94.9309 8.19998 95.3654 8.82253C95.8 9.44507 96.1586 10.2314 96.4193 11.1161C96.5931 12.0008 96.68 12.9728 96.68 14.1196V24.9868H91.8454V15.0043C91.8454 13.4971 91.5846 12.4376 91.1392 11.7386C90.7046 11.0287 89.9115 10.5919 88.673 10.5919C87.3584 10.5919 86.3915 11.127 85.7722 11.9134C85.1529 12.7107 84.8922 14.0322 84.8922 15.8016V25.0851H80.0575V7.21702C80.0793 7.21702 84.827 7.21702 84.827 7.21702ZM107.512 10.3952C106.719 10.3952 106.11 10.5699 105.578 10.9304C105.046 11.2799 104.611 11.7277 104.263 12.3393C103.916 12.8744 103.731 13.4861 103.557 14.196C103.383 14.9059 103.383 15.5175 103.383 16.2274C103.383 16.85 103.47 17.549 103.557 18.1715C103.731 18.8814 103.905 19.4057 104.263 19.9408C104.611 20.476 104.97 20.9129 105.491 21.2624C106.023 21.6119 106.632 21.7975 107.425 21.7975C108.566 21.7975 109.446 21.448 110.152 20.8255C110.771 20.203 111.206 19.3183 111.293 18.1715H115.953C115.606 20.5525 114.726 22.3218 113.226 23.5669C111.727 24.801 109.793 25.4236 107.425 25.4236C106.11 25.4236 104.872 25.1615 103.818 24.7137C102.677 24.2768 101.797 23.6542 101.004 22.857C100.211 22.0597 99.6025 21.0876 99.1571 20.0282C98.7225 18.8814 98.5378 17.7346 98.5378 16.4022C98.5378 14.9933 98.7117 13.7482 99.1571 12.6014C99.5917 11.4546 100.124 10.3952 100.917 9.51053C101.71 8.62587 102.677 8.00333 103.731 7.47908C104.872 7.04221 106.099 6.76917 107.512 6.76917C108.566 6.76917 109.533 6.94391 110.5 7.20604C111.466 7.46816 112.346 7.91595 113.053 8.4402C113.846 8.97537 114.454 9.67436 114.9 10.559C115.334 11.3563 115.606 12.4157 115.693 13.5625H110.945C110.76 11.4546 109.619 10.3952 107.512 10.3952ZM123.243 20.7382C123.95 21.4481 125.09 21.7976 126.405 21.7976C127.372 21.7976 128.252 21.5355 128.958 21.0877C129.664 20.5525 130.099 20.0283 130.273 19.4931H134.488C133.782 21.6119 132.728 23.1191 131.327 24.0912C129.925 24.9758 128.252 25.5001 126.231 25.5001C124.83 25.5001 123.591 25.238 122.45 24.7902C121.31 24.3533 120.43 23.7308 119.636 22.8461C118.843 22.0488 118.235 21.0768 117.876 19.93C117.442 18.7832 117.257 17.549 117.257 16.1292C117.257 14.8077 117.431 13.5626 117.876 12.4158C118.311 11.269 118.93 10.297 119.723 9.4123C120.516 8.615 121.483 7.90509 122.537 7.46822C123.678 7.03135 124.906 6.7583 126.231 6.7583C127.73 6.7583 129.045 7.02042 130.099 7.64297C131.24 8.26551 132.12 8.9645 132.826 10.0239C133.532 10.996 134.053 12.1427 134.412 13.3769C134.76 14.6111 134.847 15.9435 134.76 17.3524H122.016C122.016 18.7067 122.537 20.0283 123.243 20.7382ZM128.871 11.4547C128.252 10.8321 127.285 10.4826 126.144 10.4826C125.351 10.4826 124.743 10.6574 124.21 10.9195C123.678 11.1816 123.243 11.542 122.983 11.8915C122.722 12.241 122.45 12.6888 122.363 13.1257C122.277 13.5626 122.19 13.923 122.19 14.2725H130.099C129.838 12.9619 129.393 12.0772 128.871 11.4547Z" fill="#9CA3AF"/>
<path d="M12.3073 0.5C13.448 0.5 14.5019 0.587374 15.4688 0.849497C16.4357 1.02425 17.2288 1.38467 17.935 1.82154C18.6412 2.25841 19.1627 2.88095 19.5212 3.67824C19.8689 4.47553 20.0536 5.44757 20.0536 6.50699C20.0536 7.74115 19.7928 8.80056 19.1735 9.59785C18.6412 10.3951 17.772 11.1051 16.7073 11.6293C18.2066 12.0662 19.3474 12.8635 20.0427 13.9229C20.738 14.9823 21.1835 16.3038 21.1835 17.811C21.1835 19.0452 20.9227 20.1046 20.4773 20.9893C20.0427 21.8739 19.3365 22.6712 18.5434 23.1955C17.7503 23.7307 16.7834 24.1675 15.7295 24.4296C14.6757 24.6918 13.6218 24.8665 12.568 24.8665L0.791016 24.8884V0.5H12.3073ZM11.6011 10.3951C12.568 10.3951 13.3611 10.133 13.9695 9.68523C14.5779 9.23743 14.8495 8.45107 14.8495 7.47903C14.8495 6.94386 14.7626 6.41961 14.5888 6.07011C14.4149 5.72062 14.1542 5.44757 13.7957 5.18545C13.448 5.0107 13.0895 4.83595 12.6549 4.74858C12.2203 4.6612 11.7749 4.6612 11.2534 4.6612H6.15802V10.4061C6.15802 10.3951 11.6011 10.3951 11.6011 10.3951ZM11.8618 20.8255C12.3942 20.8255 12.9157 20.7381 13.3611 20.6507C13.7957 20.5633 14.2411 20.3886 14.5888 20.1155C14.9364 19.8425 15.208 19.5804 15.4688 19.1435C15.6426 18.7066 15.8165 18.1715 15.8165 17.5489C15.8165 16.3148 15.4688 15.4301 14.7626 14.8075C14.0564 14.2724 13.0895 14.0103 11.9487 14.0103H6.15802V20.8145H11.8618V20.8255ZM28.832 20.738C29.5382 21.4479 30.592 21.7974 31.9935 21.7974C32.9604 21.7974 33.8405 21.5353 34.5466 21.0875C35.2528 20.5523 35.6874 20.0281 35.8612 19.4929H40.1635C39.4573 21.6117 38.4035 23.119 37.002 24.091C35.6005 24.9757 33.9274 25.4999 31.9066 25.4999C30.5051 25.4999 29.2666 25.2378 28.1258 24.79C26.985 24.3531 26.105 23.7306 25.3119 22.8459C24.5188 22.0486 23.9104 21.0766 23.5519 19.9298C23.1173 18.783 22.9326 17.5488 22.9326 16.129C22.9326 14.8075 23.1065 13.5624 23.5519 12.4156C23.9973 11.2688 24.6057 10.2968 25.3988 9.41211C26.1919 8.61482 27.1589 7.9049 28.2127 7.46803C29.3535 7.03116 30.4942 6.75811 31.9066 6.75811C33.4059 6.75811 34.7205 7.02024 35.8612 7.64278C37.002 8.26532 37.882 8.96431 38.5882 10.0237C39.2944 10.9958 39.8159 12.1426 40.1744 13.3767C40.3482 14.6109 40.4351 15.856 40.3482 17.2649H27.6043C27.6043 18.7066 28.1258 20.0281 28.832 20.738ZM34.3728 11.4545C33.7535 10.8319 32.7866 10.4824 31.6459 10.4824C30.8528 10.4824 30.2444 10.6572 29.712 10.9193C29.1796 11.1814 28.832 11.5419 28.4843 11.8914C28.1367 12.2409 27.952 12.6886 27.8651 13.1255C27.7781 13.5624 27.6912 13.9228 27.6912 14.2723H35.6005C35.4267 12.9617 34.9812 12.077 34.3728 11.4545ZM26.6374 2.18188H36.4805V4.56283H26.6374V2.18188ZM47.2036 0.5V9.68523H47.2906C47.9098 8.62581 48.6921 7.9159 49.659 7.47902C50.6259 7.04215 51.5059 6.76911 52.4729 6.76911C53.7875 6.76911 54.8413 6.94386 55.6344 7.30428C56.4275 7.65377 57.1337 8.18894 57.5683 8.81148C58.0028 9.43403 58.3614 10.2204 58.5352 11.1051C58.709 11.9897 58.7959 12.9618 58.7959 14.1086V24.9757H53.9613V14.9932C53.9613 13.486 53.7005 12.4266 53.2551 11.7276C52.8097 11.0286 52.0383 10.6573 50.8975 10.6573C49.5829 10.6573 48.616 11.0941 48.0837 11.8041C47.4644 12.6013 47.2036 13.9229 47.2036 15.6922V24.9757H42.369V0.5H47.2036ZM62.3269 9.87102C62.8592 9.07373 63.4676 8.54948 64.2607 8.01431C65.0538 7.57744 65.9338 7.21702 66.9008 7.04227C67.8677 6.86753 68.8346 6.78015 69.8016 6.78015C70.6816 6.78015 71.5616 6.86753 72.5285 6.9549C73.4085 7.04227 74.2886 7.3044 74.9947 7.66482C75.7878 8.01431 76.3093 8.54948 76.8417 9.17202C77.2763 9.79457 77.5479 10.6792 77.5479 11.7386V21.0222C77.5479 21.8195 77.6348 22.6167 77.7217 23.3157C77.8086 24.0257 78.0694 24.6373 78.341 24.9977H73.4194C73.2456 24.8229 73.1587 24.4625 73.0717 24.2004C72.9848 23.9383 72.9848 23.5779 72.9848 23.3157C72.1917 24.113 71.3117 24.6373 70.2579 24.9977C69.204 25.3472 68.1502 25.4346 67.0963 25.4346C66.2163 25.4346 65.5101 25.3472 64.7279 25.0851C64.0217 24.9103 63.4133 24.5499 62.794 24.113C62.2617 23.6762 61.8271 23.141 61.4794 22.4311C61.2187 21.7212 61.0449 21.0222 61.0449 20.0501C61.0449 19.0781 61.2187 18.1934 61.5772 17.5709C61.9249 16.9483 62.3703 16.4241 62.8918 15.9763C63.4242 15.6268 64.1195 15.2664 64.8257 15.0916C65.5319 14.9169 66.2272 14.7421 67.0203 14.6548C67.7265 14.5674 68.4218 14.48 69.128 14.3926C69.8342 14.3053 70.4426 14.2179 70.9749 14.1305C71.5073 13.9558 71.9418 13.781 72.2895 13.508C72.6372 13.2459 72.7241 12.8854 72.7241 12.3612C72.7241 11.826 72.6372 11.3891 72.4633 11.127C72.2895 10.8649 72.0288 10.5919 71.7571 10.4171C71.4964 10.2424 71.1379 10.155 70.7902 10.0676C70.4426 9.98024 69.9971 9.98024 69.5625 9.98024C68.5956 9.98024 67.8894 10.155 67.3679 10.6028C66.8356 11.0396 66.4879 11.7496 66.401 12.6342H61.5664C61.5338 11.5421 61.8814 10.57 62.3269 9.87102ZM71.9092 16.7627C71.6485 16.85 71.29 16.9374 70.9423 17.0248C70.5947 17.1122 70.2361 17.1122 69.8016 17.1995C69.4539 17.2869 69.0085 17.2869 68.6608 17.3743C68.3131 17.4617 67.9546 17.549 67.607 17.6364C67.2593 17.7238 66.9008 17.8985 66.7269 18.0733C66.4662 18.248 66.2924 18.5102 66.1077 18.7832C65.8469 19.1327 65.8469 19.4931 65.8469 19.93C65.8469 20.3669 65.9338 20.7273 66.1077 20.9894C66.2815 21.2515 66.4553 21.5246 66.7269 21.6993C66.9877 21.8741 67.3462 21.9614 67.6939 22.0488C68.0415 22.1362 68.4001 22.1362 68.8346 22.1362C69.8016 22.1362 70.5077 21.9614 71.0292 21.6993C71.5616 21.3498 71.9093 20.9894 72.17 20.5525C72.4307 20.1157 72.6046 19.6679 72.6046 19.231C72.6915 18.7941 72.6915 18.4337 72.6915 18.1716V16.3149C72.4307 16.4896 72.17 16.6753 71.9092 16.7627ZM84.827 7.21702V9.69627H84.9139C85.5332 8.63686 86.3154 7.92694 87.2823 7.49007C88.2493 7.0532 89.3031 6.78015 90.2701 6.78015C91.5846 6.78015 92.6385 6.9549 93.4316 7.31532C94.3116 7.66482 94.9309 8.19998 95.3654 8.82253C95.8 9.44507 96.1586 10.2314 96.4193 11.1161C96.5931 12.0008 96.68 12.9728 96.68 14.1196V24.9868H91.8454V15.0043C91.8454 13.4971 91.5846 12.4376 91.1392 11.7386C90.7046 11.0287 89.9115 10.5919 88.673 10.5919C87.3584 10.5919 86.3915 11.127 85.7722 11.9134C85.1529 12.7107 84.8922 14.0322 84.8922 15.8016V25.0851H80.0575V7.21702C80.0793 7.21702 84.827 7.21702 84.827 7.21702ZM107.512 10.3952C106.719 10.3952 106.11 10.5699 105.578 10.9304C105.046 11.2799 104.611 11.7277 104.263 12.3393C103.916 12.8744 103.731 13.4861 103.557 14.196C103.383 14.9059 103.383 15.5175 103.383 16.2274C103.383 16.85 103.47 17.549 103.557 18.1715C103.731 18.8814 103.905 19.4057 104.263 19.9408C104.611 20.476 104.97 20.9129 105.491 21.2624C106.023 21.6119 106.632 21.7975 107.425 21.7975C108.566 21.7975 109.446 21.448 110.152 20.8255C110.771 20.203 111.206 19.3183 111.293 18.1715H115.953C115.606 20.5525 114.726 22.3218 113.226 23.5669C111.727 24.801 109.793 25.4236 107.425 25.4236C106.11 25.4236 104.872 25.1615 103.818 24.7137C102.677 24.2768 101.797 23.6542 101.004 22.857C100.211 22.0597 99.6025 21.0876 99.1571 20.0282C98.7225 18.8814 98.5378 17.7346 98.5378 16.4022C98.5378 14.9933 98.7117 13.7482 99.1571 12.6014C99.5917 11.4546 100.124 10.3952 100.917 9.51053C101.71 8.62587 102.677 8.00333 103.731 7.47908C104.872 7.04221 106.099 6.76917 107.512 6.76917C108.566 6.76917 109.533 6.94391 110.5 7.20604C111.466 7.46816 112.346 7.91595 113.053 8.4402C113.846 8.97537 114.454 9.67436 114.9 10.559C115.334 11.3563 115.606 12.4157 115.693 13.5625H110.945C110.76 11.4546 109.619 10.3952 107.512 10.3952ZM123.243 20.7382C123.95 21.4481 125.09 21.7976 126.405 21.7976C127.372 21.7976 128.252 21.5355 128.958 21.0877C129.664 20.5525 130.099 20.0283 130.273 19.4931H134.488C133.782 21.6119 132.728 23.1191 131.327 24.0912C129.925 24.9758 128.252 25.5001 126.231 25.5001C124.83 25.5001 123.591 25.238 122.45 24.7902C121.31 24.3533 120.43 23.7308 119.636 22.8461C118.843 22.0488 118.235 21.0768 117.876 19.93C117.442 18.7832 117.257 17.549 117.257 16.1292C117.257 14.8077 117.431 13.5626 117.876 12.4158C118.311 11.269 118.93 10.297 119.723 9.4123C120.516 8.615 121.483 7.90509 122.537 7.46822C123.678 7.03135 124.906 6.7583 126.231 6.7583C127.73 6.7583 129.045 7.02042 130.099 7.64297C131.24 8.26551 132.12 8.9645 132.826 10.0239C133.532 10.996 134.053 12.1427 134.412 13.3769C134.76 14.6111 134.847 15.9435 134.76 17.3524H122.016C122.016 18.7067 122.537 20.0283 123.243 20.7382ZM128.871 11.4547C128.252 10.8321 127.285 10.4826 126.144 10.4826C125.351 10.4826 124.743 10.6574 124.21 10.9195C123.678 11.1816 123.243 11.542 122.983 11.8915C122.722 12.241 122.45 12.6888 122.363 13.1257C122.277 13.5626 122.19 13.923 122.19 14.2725H130.099C129.838 12.9619 129.393 12.0772 128.871 11.4547Z" fill="#9CA3AF"/>
<path d="M12.3073 0.5C13.448 0.5 14.5019 0.587374 15.4688 0.849497C16.4357 1.02425 17.2288 1.38467 17.935 1.82154C18.6412 2.25841 19.1627 2.88095 19.5212 3.67824C19.8689 4.47553 20.0536 5.44757 20.0536 6.50699C20.0536 7.74115 19.7928 8.80056 19.1735 9.59785C18.6412 10.3951 17.772 11.1051 16.7073 11.6293C18.2066 12.0662 19.3474 12.8635 20.0427 13.9229C20.738 14.9823 21.1835 16.3038 21.1835 17.811C21.1835 19.0452 20.9227 20.1046 20.4773 20.9893C20.0427 21.8739 19.3365 22.6712 18.5434 23.1955C17.7503 23.7307 16.7834 24.1675 15.7295 24.4296C14.6757 24.6918 13.6218 24.8665 12.568 24.8665L0.791016 24.8884V0.5H12.3073ZM11.6011 10.3951C12.568 10.3951 13.3611 10.133 13.9695 9.68523C14.5779 9.23743 14.8495 8.45107 14.8495 7.47903C14.8495 6.94386 14.7626 6.41961 14.5888 6.07011C14.4149 5.72062 14.1542 5.44757 13.7957 5.18545C13.448 5.0107 13.0895 4.83595 12.6549 4.74858C12.2203 4.6612 11.7749 4.6612 11.2534 4.6612H6.15802V10.4061C6.15802 10.3951 11.6011 10.3951 11.6011 10.3951ZM11.8618 20.8255C12.3942 20.8255 12.9157 20.7381 13.3611 20.6507C13.7957 20.5633 14.2411 20.3886 14.5888 20.1155C14.9364 19.8425 15.208 19.5804 15.4688 19.1435C15.6426 18.7066 15.8165 18.1715 15.8165 17.5489C15.8165 16.3148 15.4688 15.4301 14.7626 14.8075C14.0564 14.2724 13.0895 14.0103 11.9487 14.0103H6.15802V20.8145H11.8618V20.8255ZM28.832 20.738C29.5382 21.4479 30.592 21.7974 31.9935 21.7974C32.9604 21.7974 33.8405 21.5353 34.5466 21.0875C35.2528 20.5523 35.6874 20.0281 35.8612 19.4929H40.1635C39.4573 21.6117 38.4035 23.119 37.002 24.091C35.6005 24.9757 33.9274 25.4999 31.9066 25.4999C30.5051 25.4999 29.2666 25.2378 28.1258 24.79C26.985 24.3531 26.105 23.7306 25.3119 22.8459C24.5188 22.0486 23.9104 21.0766 23.5519 19.9298C23.1173 18.783 22.9326 17.5488 22.9326 16.129C22.9326 14.8075 23.1065 13.5624 23.5519 12.4156C23.9973 11.2688 24.6057 10.2968 25.3988 9.41211C26.1919 8.61482 27.1589 7.9049 28.2127 7.46803C29.3535 7.03116 30.4942 6.75811 31.9066 6.75811C33.4059 6.75811 34.7205 7.02024 35.8612 7.64278C37.002 8.26532 37.882 8.96431 38.5882 10.0237C39.2944 10.9958 39.8159 12.1426 40.1744 13.3767C40.3482 14.6109 40.4351 15.856 40.3482 17.2649H27.6043C27.6043 18.7066 28.1258 20.0281 28.832 20.738ZM34.3728 11.4545C33.7535 10.8319 32.7866 10.4824 31.6459 10.4824C30.8528 10.4824 30.2444 10.6572 29.712 10.9193C29.1796 11.1814 28.832 11.5419 28.4843 11.8914C28.1367 12.2409 27.952 12.6886 27.8651 13.1255C27.7781 13.5624 27.6912 13.9228 27.6912 14.2723H35.6005C35.4267 12.9617 34.9812 12.077 34.3728 11.4545ZM26.6374 2.18188H36.4805V4.56283H26.6374V2.18188ZM47.2036 0.5V9.68523H47.2906C47.9098 8.62581 48.6921 7.9159 49.659 7.47902C50.6259 7.04215 51.5059 6.76911 52.4729 6.76911C53.7875 6.76911 54.8413 6.94386 55.6344 7.30428C56.4275 7.65377 57.1337 8.18894 57.5683 8.81148C58.0028 9.43403 58.3614 10.2204 58.5352 11.1051C58.709 11.9897 58.7959 12.9618 58.7959 14.1086V24.9757H53.9613V14.9932C53.9613 13.486 53.7005 12.4266 53.2551 11.7276C52.8097 11.0286 52.0383 10.6573 50.8975 10.6573C49.5829 10.6573 48.616 11.0941 48.0837 11.8041C47.4644 12.6013 47.2036 13.9229 47.2036 15.6922V24.9757H42.369V0.5H47.2036ZM62.3269 9.87102C62.8592 9.07373 63.4676 8.54948 64.2607 8.01431C65.0538 7.57744 65.9338 7.21702 66.9008 7.04227C67.8677 6.86753 68.8346 6.78015 69.8016 6.78015C70.6816 6.78015 71.5616 6.86753 72.5285 6.9549C73.4085 7.04227 74.2886 7.3044 74.9947 7.66482C75.7878 8.01431 76.3093 8.54948 76.8417 9.17202C77.2763 9.79457 77.5479 10.6792 77.5479 11.7386V21.0222C77.5479 21.8195 77.6348 22.6167 77.7217 23.3157C77.8086 24.0257 78.0694 24.6373 78.341 24.9977H73.4194C73.2456 24.8229 73.1587 24.4625 73.0717 24.2004C72.9848 23.9383 72.9848 23.5779 72.9848 23.3157C72.1917 24.113 71.3117 24.6373 70.2579 24.9977C69.204 25.3472 68.1502 25.4346 67.0963 25.4346C66.2163 25.4346 65.5101 25.3472 64.7279 25.0851C64.0217 24.9103 63.4133 24.5499 62.794 24.113C62.2617 23.6762 61.8271 23.141 61.4794 22.4311C61.2187 21.7212 61.0449 21.0222 61.0449 20.0501C61.0449 19.0781 61.2187 18.1934 61.5772 17.5709C61.9249 16.9483 62.3703 16.4241 62.8918 15.9763C63.4242 15.6268 64.1195 15.2664 64.8257 15.0916C65.5319 14.9169 66.2272 14.7421 67.0203 14.6548C67.7265 14.5674 68.4218 14.48 69.128 14.3926C69.8342 14.3053 70.4426 14.2179 70.9749 14.1305C71.5073 13.9558 71.9418 13.781 72.2895 13.508C72.6372 13.2459 72.7241 12.8854 72.7241 12.3612C72.7241 11.826 72.6372 11.3891 72.4633 11.127C72.2895 10.8649 72.0288 10.5919 71.7571 10.4171C71.4964 10.2424 71.1379 10.155 70.7902 10.0676C70.4426 9.98024 69.9971 9.98024 69.5625 9.98024C68.5956 9.98024 67.8894 10.155 67.3679 10.6028C66.8356 11.0396 66.4879 11.7496 66.401 12.6342H61.5664C61.5338 11.5421 61.8814 10.57 62.3269 9.87102ZM71.9092 16.7627C71.6485 16.85 71.29 16.9374 70.9423 17.0248C70.5947 17.1122 70.2361 17.1122 69.8016 17.1995C69.4539 17.2869 69.0085 17.2869 68.6608 17.3743C68.3131 17.4617 67.9546 17.549 67.607 17.6364C67.2593 17.7238 66.9008 17.8985 66.7269 18.0733C66.4662 18.248 66.2924 18.5102 66.1077 18.7832C65.8469 19.1327 65.8469 19.4931 65.8469 19.93C65.8469 20.3669 65.9338 20.7273 66.1077 20.9894C66.2815 21.2515 66.4553 21.5246 66.7269 21.6993C66.9877 21.8741 67.3462 21.9614 67.6939 22.0488C68.0415 22.1362 68.4001 22.1362 68.8346 22.1362C69.8016 22.1362 70.5077 21.9614 71.0292 21.6993C71.5616 21.3498 71.9093 20.9894 72.17 20.5525C72.4307 20.1157 72.6046 19.6679 72.6046 19.231C72.6915 18.7941 72.6915 18.4337 72.6915 18.1716V16.3149C72.4307 16.4896 72.17 16.6753 71.9092 16.7627ZM84.827 7.21702V9.69627H84.9139C85.5332 8.63686 86.3154 7.92694 87.2823 7.49007C88.2493 7.0532 89.3031 6.78015 90.2701 6.78015C91.5846 6.78015 92.6385 6.9549 93.4316 7.31532C94.3116 7.66482 94.9309 8.19998 95.3654 8.82253C95.8 9.44507 96.1586 10.2314 96.4193 11.1161C96.5931 12.0008 96.68 12.9728 96.68 14.1196V24.9868H91.8454V15.0043C91.8454 13.4971 91.5846 12.4376 91.1392 11.7386C90.7046 11.0287 89.9115 10.5919 88.673 10.5919C87.3584 10.5919 86.3915 11.127 85.7722 11.9134C85.1529 12.7107 84.8922 14.0322 84.8922 15.8016V25.0851H80.0575V7.21702C80.0793 7.21702 84.827 7.21702 84.827 7.21702ZM107.512 10.3952C106.719 10.3952 106.11 10.5699 105.578 10.9304C105.046 11.2799 104.611 11.7277 104.263 12.3393C103.916 12.8744 103.731 13.4861 103.557 14.196C103.383 14.9059 103.383 15.5175 103.383 16.2274C103.383 16.85 103.47 17.549 103.557 18.1715C103.731 18.8814 103.905 19.4057 104.263 19.9408C104.611 20.476 104.97 20.9129 105.491 21.2624C106.023 21.6119 106.632 21.7975 107.425 21.7975C108.566 21.7975 109.446 21.448 110.152 20.8255C110.771 20.203 111.206 19.3183 111.293 18.1715H115.953C115.606 20.5525 114.726 22.3218 113.226 23.5669C111.727 24.801 109.793 25.4236 107.425 25.4236C106.11 25.4236 104.872 25.1615 103.818 24.7137C102.677 24.2768 101.797 23.6542 101.004 22.857C100.211 22.0597 99.6025 21.0876 99.1571 20.0282C98.7225 18.8814 98.5378 17.7346 98.5378 16.4022C98.5378 14.9933 98.7117 13.7482 99.1571 12.6014C99.5917 11.4546 100.124 10.3952 100.917 9.51053C101.71 8.62587 102.677 8.00333 103.731 7.47908C104.872 7.04221 106.099 6.76917 107.512 6.76917C108.566 6.76917 109.533 6.94391 110.5 7.20604C111.466 7.46816 112.346 7.91595 113.053 8.4402C113.846 8.97537 114.454 9.67436 114.9 10.559C115.334 11.3563 115.606 12.4157 115.693 13.5625H110.945C110.76 11.4546 109.619 10.3952 107.512 10.3952ZM123.243 20.7382C123.95 21.4481 125.09 21.7976 126.405 21.7976C127.372 21.7976 128.252 21.5355 128.958 21.0877C129.664 20.5525 130.099 20.0283 130.273 19.4931H134.488C133.782 21.6119 132.728 23.1191 131.327 24.0912C129.925 24.9758 128.252 25.5001 126.231 25.5001C124.83 25.5001 123.591 25.238 122.45 24.7902C121.31 24.3533 120.43 23.7308 119.636 22.8461C118.843 22.0488 118.235 21.0768 117.876 19.93C117.442 18.7832 117.257 17.549 117.257 16.1292C117.257 14.8077 117.431 13.5626 117.876 12.4158C118.311 11.269 118.93 10.297 119.723 9.4123C120.516 8.615 121.483 7.90509 122.537 7.46822C123.678 7.03135 124.906 6.7583 126.231 6.7583C127.73 6.7583 129.045 7.02042 130.099 7.64297C131.24 8.26551 132.12 8.9645 132.826 10.0239C133.532 10.996 134.053 12.1427 134.412 13.3769C134.76 14.6111 134.847 15.9435 134.76 17.3524H122.016C122.016 18.7067 122.537 20.0283 123.243 20.7382ZM128.871 11.4547C128.252 10.8321 127.285 10.4826 126.144 10.4826C125.351 10.4826 124.743 10.6574 124.21 10.9195C123.678 11.1816 123.243 11.542 122.983 11.8915C122.722 12.241 122.45 12.6888 122.363 13.1257C122.277 13.5626 122.19 13.923 122.19 14.2725H130.099C129.838 12.9619 129.393 12.0772 128.871 11.4547Z" fill="#9CA3AF"/>
<path d="M12.3073 0.5C13.448 0.5 14.5019 0.587374 15.4688 0.849497C16.4357 1.02425 17.2288 1.38467 17.935 1.82154C18.6412 2.25841 19.1627 2.88095 19.5212 3.67824C19.8689 4.47553 20.0536 5.44757 20.0536 6.50699C20.0536 7.74115 19.7928 8.80056 19.1735 9.59785C18.6412 10.3951 17.772 11.1051 16.7073 11.6293C18.2066 12.0662 19.3474 12.8635 20.0427 13.9229C20.738 14.9823 21.1835 16.3038 21.1835 17.811C21.1835 19.0452 20.9227 20.1046 20.4773 20.9893C20.0427 21.8739 19.3365 22.6712 18.5434 23.1955C17.7503 23.7307 16.7834 24.1675 15.7295 24.4296C14.6757 24.6918 13.6218 24.8665 12.568 24.8665L0.791016 24.8884V0.5H12.3073ZM11.6011 10.3951C12.568 10.3951 13.3611 10.133 13.9695 9.68523C14.5779 9.23743 14.8495 8.45107 14.8495 7.47903C14.8495 6.94386 14.7626 6.41961 14.5888 6.07011C14.4149 5.72062 14.1542 5.44757 13.7957 5.18545C13.448 5.0107 13.0895 4.83595 12.6549 4.74858C12.2203 4.6612 11.7749 4.6612 11.2534 4.6612H6.15802V10.4061C6.15802 10.3951 11.6011 10.3951 11.6011 10.3951ZM11.8618 20.8255C12.3942 20.8255 12.9157 20.7381 13.3611 20.6507C13.7957 20.5633 14.2411 20.3886 14.5888 20.1155C14.9364 19.8425 15.208 19.5804 15.4688 19.1435C15.6426 18.7066 15.8165 18.1715 15.8165 17.5489C15.8165 16.3148 15.4688 15.4301 14.7626 14.8075C14.0564 14.2724 13.0895 14.0103 11.9487 14.0103H6.15802V20.8145H11.8618V20.8255ZM28.832 20.738C29.5382 21.4479 30.592 21.7974 31.9935 21.7974C32.9604 21.7974 33.8405 21.5353 34.5466 21.0875C35.2528 20.5523 35.6874 20.0281 35.8612 19.4929H40.1635C39.4573 21.6117 38.4035 23.119 37.002 24.091C35.6005 24.9757 33.9274 25.4999 31.9066 25.4999C30.5051 25.4999 29.2666 25.2378 28.1258 24.79C26.985 24.3531 26.105 23.7306 25.3119 22.8459C24.5188 22.0486 23.9104 21.0766 23.5519 19.9298C23.1173 18.783 22.9326 17.5488 22.9326 16.129C22.9326 14.8075 23.1065 13.5624 23.5519 12.4156C23.9973 11.2688 24.6057 10.2968 25.3988 9.41211C26.1919 8.61482 27.1589 7.9049 28.2127 7.46803C29.3535 7.03116 30.4942 6.75811 31.9066 6.75811C33.4059 6.75811 34.7205 7.02024 35.8612 7.64278C37.002 8.26532 37.882 8.96431 38.5882 10.0237C39.2944 10.9958 39.8159 12.1426 40.1744 13.3767C40.3482 14.6109 40.4351 15.856 40.3482 17.2649H27.6043C27.6043 18.7066 28.1258 20.0281 28.832 20.738ZM34.3728 11.4545C33.7535 10.8319 32.7866 10.4824 31.6459 10.4824C30.8528 10.4824 30.2444 10.6572 29.712 10.9193C29.1796 11.1814 28.832 11.5419 28.4843 11.8914C28.1367 12.2409 27.952 12.6886 27.8651 13.1255C27.7781 13.5624 27.6912 13.9228 27.6912 14.2723H35.6005C35.4267 12.9617 34.9812 12.077 34.3728 11.4545ZM26.6374 2.18188H36.4805V4.56283H26.6374V2.18188ZM47.2036 0.5V9.68523H47.2906C47.9098 8.62581 48.6921 7.9159 49.659 7.47902C50.6259 7.04215 51.5059 6.76911 52.4729 6.76911C53.7875 6.76911 54.8413 6.94386 55.6344 7.30428C56.4275 7.65377 57.1337 8.18894 57.5683 8.81148C58.0028 9.43403 58.3614 10.2204 58.5352 11.1051C58.709 11.9897 58.7959 12.9618 58.7959 14.1086V24.9757H53.9613V14.9932C53.9613 13.486 53.7005 12.4266 53.2551 11.7276C52.8097 11.0286 52.0383 10.6573 50.8975 10.6573C49.5829 10.6573 48.616 11.0941 48.0837 11.8041C47.4644 12.6013 47.2036 13.9229 47.2036 15.6922V24.9757H42.369V0.5H47.2036ZM62.3269 9.87102C62.8592 9.07373 63.4676 8.54948 64.2607 8.01431C65.0538 7.57744 65.9338 7.21702 66.9008 7.04227C67.8677 6.86753 68.8346 6.78015 69.8016 6.78015C70.6816 6.78015 71.5616 6.86753 72.5285 6.9549C73.4085 7.04227 74.2886 7.3044 74.9947 7.66482C75.7878 8.01431 76.3093 8.54948 76.8417 9.17202C77.2763 9.79457 77.5479 10.6792 77.5479 11.7386V21.0222C77.5479 21.8195 77.6348 22.6167 77.7217 23.3157C77.8086 24.0257 78.0694 24.6373 78.341 24.9977H73.4194C73.2456 24.8229 73.1587 24.4625 73.0717 24.2004C72.9848 23.9383 72.9848 23.5779 72.9848 23.3157C72.1917 24.113 71.3117 24.6373 70.2579 24.9977C69.204 25.3472 68.1502 25.4346 67.0963 25.4346C66.2163 25.4346 65.5101 25.3472 64.7279 25.0851C64.0217 24.9103 63.4133 24.5499 62.794 24.113C62.2617 23.6762 61.8271 23.141 61.4794 22.4311C61.2187 21.7212 61.0449 21.0222 61.0449 20.0501C61.0449 19.0781 61.2187 18.1934 61.5772 17.5709C61.9249 16.9483 62.3703 16.4241 62.8918 15.9763C63.4242 15.6268 64.1195 15.2664 64.8257 15.0916C65.5319 14.9169 66.2272 14.7421 67.0203 14.6548C67.7265 14.5674 68.4218 14.48 69.128 14.3926C69.8342 14.3053 70.4426 14.2179 70.9749 14.1305C71.5073 13.9558 71.9418 13.781 72.2895 13.508C72.6372 13.2459 72.7241 12.8854 72.7241 12.3612C72.7241 11.826 72.6372 11.3891 72.4633 11.127C72.2895 10.8649 72.0288 10.5919 71.7571 10.4171C71.4964 10.2424 71.1379 10.155 70.7902 10.0676C70.4426 9.98024 69.9971 9.98024 69.5625 9.98024C68.5956 9.98024 67.8894 10.155 67.3679 10.6028C66.8356 11.0396 66.4879 11.7496 66.401 12.6342H61.5664C61.5338 11.5421 61.8814 10.57 62.3269 9.87102ZM71.9092 16.7627C71.6485 16.85 71.29 16.9374 70.9423 17.0248C70.5947 17.1122 70.2361 17.1122 69.8016 17.1995C69.4539 17.2869 69.0085 17.2869 68.6608 17.3743C68.3131 17.4617 67.9546 17.549 67.607 17.6364C67.2593 17.7238 66.9008 17.8985 66.7269 18.0733C66.4662 18.248 66.2924 18.5102 66.1077 18.7832C65.8469 19.1327 65.8469 19.4931 65.8469 19.93C65.8469 20.3669 65.9338 20.7273 66.1077 20.9894C66.2815 21.2515 66.4553 21.5246 66.7269 21.6993C66.9877 21.8741 67.3462 21.9614 67.6939 22.0488C68.0415 22.1362 68.4001 22.1362 68.8346 22.1362C69.8016 22.1362 70.5077 21.9614 71.0292 21.6993C71.5616 21.3498 71.9093 20.9894 72.17 20.5525C72.4307 20.1157 72.6046 19.6679 72.6046 19.231C72.6915 18.7941 72.6915 18.4337 72.6915 18.1716V16.3149C72.4307 16.4896 72.17 16.6753 71.9092 16.7627ZM84.827 7.21702V9.69627H84.9139C85.5332 8.63686 86.3154 7.92694 87.2823 7.49007C88.2493 7.0532 89.3031 6.78015 90.2701 6.78015C91.5846 6.78015 92.6385 6.9549 93.4316 7.31532C94.3116 7.66482 94.9309 8.19998 95.3654 8.82253C95.8 9.44507 96.1586 10.2314 96.4193 11.1161C96.5931 12.0008 96.68 12.9728 96.68 14.1196V24.9868H91.8454V15.0043C91.8454 13.4971 91.5846 12.4376 91.1392 11.7386C90.7046 11.0287 89.9115 10.5919 88.673 10.5919C87.3584 10.5919 86.3915 11.127 85.7722 11.9134C85.1529 12.7107 84.8922 14.0322 84.8922 15.8016V25.0851H80.0575V7.21702C80.0793 7.21702 84.827 7.21702 84.827 7.21702ZM107.512 10.3952C106.719 10.3952 106.11 10.5699 105.578 10.9304C105.046 11.2799 104.611 11.7277 104.263 12.3393C103.916 12.8744 103.731 13.4861 103.557 14.196C103.383 14.9059 103.383 15.5175 103.383 16.2274C103.383 16.85 103.47 17.549 103.557 18.1715C103.731 18.8814 103.905 19.4057 104.263 19.9408C104.611 20.476 104.97 20.9129 105.491 21.2624C106.023 21.6119 106.632 21.7975 107.425 21.7975C108.566 21.7975 109.446 21.448 110.152 20.8255C110.771 20.203 111.206 19.3183 111.293 18.1715H115.953C115.606 20.5525 114.726 22.3218 113.226 23.5669C111.727 24.801 109.793 25.4236 107.425 25.4236C106.11 25.4236 104.872 25.1615 103.818 24.7137C102.677 24.2768 101.797 23.6542 101.004 22.857C100.211 22.0597 99.6025 21.0876 99.1571 20.0282C98.7225 18.8814 98.5378 17.7346 98.5378 16.4022C98.5378 14.9933 98.7117 13.7482 99.1571 12.6014C99.5917 11.4546 100.124 10.3952 100.917 9.51053C101.71 8.62587 102.677 8.00333 103.731 7.47908C104.872 7.04221 106.099 6.76917 107.512 6.76917C108.566 6.76917 109.533 6.94391 110.5 7.20604C111.466 7.46816 112.346 7.91595 113.053 8.4402C113.846 8.97537 114.454 9.67436 114.9 10.559C115.334 11.3563 115.606 12.4157 115.693 13.5625H110.945C110.76 11.4546 109.619 10.3952 107.512 10.3952ZM123.243 20.7382C123.95 21.4481 125.09 21.7976 126.405 21.7976C127.372 21.7976 128.252 21.5355 128.958 21.0877C129.664 20.5525 130.099 20.0283 130.273 19.4931H134.488C133.782 21.6119 132.728 23.1191 131.327 24.0912C129.925 24.9758 128.252 25.5001 126.231 25.5001C124.83 25.5001 123.591 25.238 122.45 24.7902C121.31 24.3533 120.43 23.7308 119.636 22.8461C118.843 22.0488 118.235 21.0768 117.876 19.93C117.442 18.7832 117.257 17.549 117.257 16.1292C117.257 14.8077 117.431 13.5626 117.876 12.4158C118.311 11.269 118.93 10.297 119.723 9.4123C120.516 8.615 121.483 7.90509 122.537 7.46822C123.678 7.03135 124.906 6.7583 126.231 6.7583C127.73 6.7583 129.045 7.02042 130.099 7.64297C131.24 8.26551 132.12 8.9645 132.826 10.0239C133.532 10.996 134.053 12.1427 134.412 13.3769C134.76 14.6111 134.847 15.9435 134.76 17.3524H122.016C122.016 18.7067 122.537 20.0283 123.243 20.7382ZM128.871 11.4547C128.252 10.8321 127.285 10.4826 126.144 10.4826C125.351 10.4826 124.743 10.6574 124.21 10.9195C123.678 11.1816 123.243 11.542 122.983 11.8915C122.722 12.241 122.45 12.6888 122.363 13.1257C122.277 13.5626 122.19 13.923 122.19 14.2725H130.099C129.838 12.9619 129.393 12.0772 128.871 11.4547Z" fill="#9CA3AF"/>
<path d="M12.3073 0.5C13.448 0.5 14.5019 0.587374 15.4688 0.849497C16.4357 1.02425 17.2288 1.38467 17.935 1.82154C18.6412 2.25841 19.1627 2.88095 19.5212 3.67824C19.8689 4.47553 20.0536 5.44757 20.0536 6.50699C20.0536 7.74115 19.7928 8.80056 19.1735 9.59785C18.6412 10.3951 17.772 11.1051 16.7073 11.6293C18.2066 12.0662 19.3474 12.8635 20.0427 13.9229C20.738 14.9823 21.1835 16.3038 21.1835 17.811C21.1835 19.0452 20.9227 20.1046 20.4773 20.9893C20.0427 21.8739 19.3365 22.6712 18.5434 23.1955C17.7503 23.7307 16.7834 24.1675 15.7295 24.4296C14.6757 24.6918 13.6218 24.8665 12.568 24.8665L0.791016 24.8884V0.5H12.3073ZM11.6011 10.3951C12.568 10.3951 13.3611 10.133 13.9695 9.68523C14.5779 9.23743 14.8495 8.45107 14.8495 7.47903C14.8495 6.94386 14.7626 6.41961 14.5888 6.07011C14.4149 5.72062 14.1542 5.44757 13.7957 5.18545C13.448 5.0107 13.0895 4.83595 12.6549 4.74858C12.2203 4.6612 11.7749 4.6612 11.2534 4.6612H6.15802V10.4061C6.15802 10.3951 11.6011 10.3951 11.6011 10.3951ZM11.8618 20.8255C12.3942 20.8255 12.9157 20.7381 13.3611 20.6507C13.7957 20.5633 14.2411 20.3886 14.5888 20.1155C14.9364 19.8425 15.208 19.5804 15.4688 19.1435C15.6426 18.7066 15.8165 18.1715 15.8165 17.5489C15.8165 16.3148 15.4688 15.4301 14.7626 14.8075C14.0564 14.2724 13.0895 14.0103 11.9487 14.0103H6.15802V20.8145H11.8618V20.8255ZM28.832 20.738C29.5382 21.4479 30.592 21.7974 31.9935 21.7974C32.9604 21.7974 33.8405 21.5353 34.5466 21.0875C35.2528 20.5523 35.6874 20.0281 35.8612 19.4929H40.1635C39.4573 21.6117 38.4035 23.119 37.002 24.091C35.6005 24.9757 33.9274 25.4999 31.9066 25.4999C30.5051 25.4999 29.2666 25.2378 28.1258 24.79C26.985 24.3531 26.105 23.7306 25.3119 22.8459C24.5188 22.0486 23.9104 21.0766 23.5519 19.9298C23.1173 18.783 22.9326 17.5488 22.9326 16.129C22.9326 14.8075 23.1065 13.5624 23.5519 12.4156C23.9973 11.2688 24.6057 10.2968 25.3988 9.41211C26.1919 8.61482 27.1589 7.9049 28.2127 7.46803C29.3535 7.03116 30.4942 6.75811 31.9066 6.75811C33.4059 6.75811 34.7205 7.02024 35.8612 7.64278C37.002 8.26532 37.882 8.96431 38.5882 10.0237C39.2944 10.9958 39.8159 12.1426 40.1744 13.3767C40.3482 14.6109 40.4351 15.856 40.3482 17.2649H27.6043C27.6043 18.7066 28.1258 20.0281 28.832 20.738ZM34.3728 11.4545C33.7535 10.8319 32.7866 10.4824 31.6459 10.4824C30.8528 10.4824 30.2444 10.6572 29.712 10.9193C29.1796 11.1814 28.832 11.5419 28.4843 11.8914C28.1367 12.2409 27.952 12.6886 27.8651 13.1255C27.7781 13.5624 27.6912 13.9228 27.6912 14.2723H35.6005C35.4267 12.9617 34.9812 12.077 34.3728 11.4545ZM26.6374 2.18188H36.4805V4.56283H26.6374V2.18188ZM47.2036 0.5V9.68523H47.2906C47.9098 8.62581 48.6921 7.9159 49.659 7.47902C50.6259 7.04215 51.5059 6.76911 52.4729 6.76911C53.7875 6.76911 54.8413 6.94386 55.6344 7.30428C56.4275 7.65377 57.1337 8.18894 57.5683 8.81148C58.0028 9.43403 58.3614 10.2204 58.5352 11.1051C58.709 11.9897 58.7959 12.9618 58.7959 14.1086V24.9757H53.9613V14.9932C53.9613 13.486 53.7005 12.4266 53.2551 11.7276C52.8097 11.0286 52.0383 10.6573 50.8975 10.6573C49.5829 10.6573 48.616 11.0941 48.0837 11.8041C47.4644 12.6013 47.2036 13.9229 47.2036 15.6922V24.9757H42.369V0.5H47.2036ZM62.3269 9.87102C62.8592 9.07373 63.4676 8.54948 64.2607 8.01431C65.0538 7.57744 65.9338 7.21702 66.9008 7.04227C67.8677 6.86753 68.8346 6.78015 69.8016 6.78015C70.6816 6.78015 71.5616 6.86753 72.5285 6.9549C73.4085 7.04227 74.2886 7.3044 74.9947 7.66482C75.7878 8.01431 76.3093 8.54948 76.8417 9.17202C77.2763 9.79457 77.5479 10.6792 77.5479 11.7386V21.0222C77.5479 21.8195 77.6348 22.6167 77.7217 23.3157C77.8086 24.0257 78.0694 24.6373 78.341 24.9977H73.4194C73.2456 24.8229 73.1587 24.4625 73.0717 24.2004C72.9848 23.9383 72.9848 23.5779 72.9848 23.3157C72.1917 24.113 71.3117 24.6373 70.2579 24.9977C69.204 25.3472 68.1502 25.4346 67.0963 25.4346C66.2163 25.4346 65.5101 25.3472 64.7279 25.0851C64.0217 24.9103 63.4133 24.5499 62.794 24.113C62.2617 23.6762 61.8271 23.141 61.4794 22.4311C61.2187 21.7212 61.0449 21.0222 61.0449 20.0501C61.0449 19.0781 61.2187 18.1934 61.5772 17.5709C61.9249 16.9483 62.3703 16.4241 62.8918 15.9763C63.4242 15.6268 64.1195 15.2664 64.8257 15.0916C65.5319 14.9169 66.2272 14.7421 67.0203 14.6548C67.7265 14.5674 68.4218 14.48 69.128 14.3926C69.8342 14.3053 70.4426 14.2179 70.9749 14.1305C71.5073 13.9558 71.9418 13.781 72.2895 13.508C72.6372 13.2459 72.7241 12.8854 72.7241 12.3612C72.7241 11.826 72.6372 11.3891 72.4633 11.127C72.2895 10.8649 72.0288 10.5919 71.7571 10.4171C71.4964 10.2424 71.1379 10.155 70.7902 10.0676C70.4426 9.98024 69.9971 9.98024 69.5625 9.98024C68.5956 9.98024 67.8894 10.155 67.3679 10.6028C66.8356 11.0396 66.4879 11.7496 66.401 12.6342H61.5664C61.5338 11.5421 61.8814 10.57 62.3269 9.87102ZM71.9092 16.7627C71.6485 16.85 71.29 16.9374 70.9423 17.0248C70.5947 17.1122 70.2361 17.1122 69.8016 17.1995C69.4539 17.2869 69.0085 17.2869 68.6608 17.3743C68.3131 17.4617 67.9546 17.549 67.607 17.6364C67.2593 17.7238 66.9008 17.8985 66.7269 18.0733C66.4662 18.248 66.2924 18.5102 66.1077 18.7832C65.8469 19.1327 65.8469 19.4931 65.8469 19.93C65.8469 20.3669 65.9338 20.7273 66.1077 20.9894C66.2815 21.2515 66.4553 21.5246 66.7269 21.6993C66.9877 21.8741 67.3462 21.9614 67.6939 22.0488C68.0415 22.1362 68.4001 22.1362 68.8346 22.1362C69.8016 22.1362 70.5077 21.9614 71.0292 21.6993C71.5616 21.3498 71.9093 20.9894 72.17 20.5525C72.4307 20.1157 72.6046 19.6679 72.6046 19.231C72.6915 18.7941 72.6915 18.4337 72.6915 18.1716V16.3149C72.4307 16.4896 72.17 16.6753 71.9092 16.7627ZM84.827 7.21702V9.69627H84.9139C85.5332 8.63686 86.3154 7.92694 87.2823 7.49007C88.2493 7.0532 89.3031 6.78015 90.2701 6.78015C91.5846 6.78015 92.6385 6.9549 93.4316 7.31532C94.3116 7.66482 94.9309 8.19998 95.3654 8.82253C95.8 9.44507 96.1586 10.2314 96.4193 11.1161C96.5931 12.0008 96.68 12.9728 96.68 14.1196V24.9868H91.8454V15.0043C91.8454 13.4971 91.5846 12.4376 91.1392 11.7386C90.7046 11.0287 89.9115 10.5919 88.673 10.5919C87.3584 10.5919 86.3915 11.127 85.7722 11.9134C85.1529 12.7107 84.8922 14.0322 84.8922 15.8016V25.0851H80.0575V7.21702C80.0793 7.21702 84.827 7.21702 84.827 7.21702ZM107.512 10.3952C106.719 10.3952 106.11 10.5699 105.578 10.9304C105.046 11.2799 104.611 11.7277 104.263 12.3393C103.916 12.8744 103.731 13.4861 103.557 14.196C103.383 14.9059 103.383 15.5175 103.383 16.2274C103.383 16.85 103.47 17.549 103.557 18.1715C103.731 18.8814 103.905 19.4057 104.263 19.9408C104.611 20.476 104.97 20.9129 105.491 21.2624C106.023 21.6119 106.632 21.7975 107.425 21.7975C108.566 21.7975 109.446 21.448 110.152 20.8255C110.771 20.203 111.206 19.3183 111.293 18.1715H115.953C115.606 20.5525 114.726 22.3218 113.226 23.5669C111.727 24.801 109.793 25.4236 107.425 25.4236C106.11 25.4236 104.872 25.1615 103.818 24.7137C102.677 24.2768 101.797 23.6542 101.004 22.857C100.211 22.0597 99.6025 21.0876 99.1571 20.0282C98.7225 18.8814 98.5378 17.7346 98.5378 16.4022C98.5378 14.9933 98.7117 13.7482 99.1571 12.6014C99.5917 11.4546 100.124 10.3952 100.917 9.51053C101.71 8.62587 102.677 8.00333 103.731 7.47908C104.872 7.04221 106.099 6.76917 107.512 6.76917C108.566 6.76917 109.533 6.94391 110.5 7.20604C111.466 7.46816 112.346 7.91595 113.053 8.4402C113.846 8.97537 114.454 9.67436 114.9 10.559C115.334 11.3563 115.606 12.4157 115.693 13.5625H110.945C110.76 11.4546 109.619 10.3952 107.512 10.3952ZM123.243 20.7382C123.95 21.4481 125.09 21.7976 126.405 21.7976C127.372 21.7976 128.252 21.5355 128.958 21.0877C129.664 20.5525 130.099 20.0283 130.273 19.4931H134.488C133.782 21.6119 132.728 23.1191 131.327 24.0912C129.925 24.9758 128.252 25.5001 126.231 25.5001C124.83 25.5001 123.591 25.238 122.45 24.7902C121.31 24.3533 120.43 23.7308 119.636 22.8461C118.843 22.0488 118.235 21.0768 117.876 19.93C117.442 18.7832 117.257 17.549 117.257 16.1292C117.257 14.8077 117.431 13.5626 117.876 12.4158C118.311 11.269 118.93 10.297 119.723 9.4123C120.516 8.615 121.483 7.90509 122.537 7.46822C123.678 7.03135 124.906 6.7583 126.231 6.7583C127.73 6.7583 129.045 7.02042 130.099 7.64297C131.24 8.26551 132.12 8.9645 132.826 10.0239C133.532 10.996 134.053 12.1427 134.412 13.3769C134.76 14.6111 134.847 15.9435 134.76 17.3524H122.016C122.016 18.7067 122.537 20.0283 123.243 20.7382ZM128.871 11.4547C128.252 10.8321 127.285 10.4826 126.144 10.4826C125.351 10.4826 124.743 10.6574 124.21 10.9195C123.678 11.1816 123.243 11.542 122.983 11.8915C122.722 12.241 122.45 12.6888 122.363 13.1257C122.277 13.5626 122.19 13.923 122.19 14.2725H130.099C129.838 12.9619 129.393 12.0772 128.871 11.4547Z" fill="#9CA3AF"/>
<path d="M12.3073 0.5C13.448 0.5 14.5019 0.587374 15.4688 0.849497C16.4357 1.02425 17.2288 1.38467 17.935 1.82154C18.6412 2.25841 19.1627 2.88095 19.5212 3.67824C19.8689 4.47553 20.0536 5.44757 20.0536 6.50699C20.0536 7.74115 19.7928 8.80056 19.1735 9.59785C18.6412 10.3951 17.772 11.1051 16.7073 11.6293C18.2066 12.0662 19.3474 12.8635 20.0427 13.9229C20.738 14.9823 21.1835 16.3038 21.1835 17.811C21.1835 19.0452 20.9227 20.1046 20.4773 20.9893C20.0427 21.8739 19.3365 22.6712 18.5434 23.1955C17.7503 23.7307 16.7834 24.1675 15.7295 24.4296C14.6757 24.6918 13.6218 24.8665 12.568 24.8665L0.791016 24.8884V0.5H12.3073ZM11.6011 10.3951C12.568 10.3951 13.3611 10.133 13.9695 9.68523C14.5779 9.23743 14.8495 8.45107 14.8495 7.47903C14.8495 6.94386 14.7626 6.41961 14.5888 6.07011C14.4149 5.72062 14.1542 5.44757 13.7957 5.18545C13.448 5.0107 13.0895 4.83595 12.6549 4.74858C12.2203 4.6612 11.7749 4.6612 11.2534 4.6612H6.15802V10.4061C6.15802 10.3951 11.6011 10.3951 11.6011 10.3951ZM11.8618 20.8255C12.3942 20.8255 12.9157 20.7381 13.3611 20.6507C13.7957 20.5633 14.2411 20.3886 14.5888 20.1155C14.9364 19.8425 15.208 19.5804 15.4688 19.1435C15.6426 18.7066 15.8165 18.1715 15.8165 17.5489C15.8165 16.3148 15.4688 15.4301 14.7626 14.8075C14.0564 14.2724 13.0895 14.0103 11.9487 14.0103H6.15802V20.8145H11.8618V20.8255ZM28.832 20.738C29.5382 21.4479 30.592 21.7974 31.9935 21.7974C32.9604 21.7974 33.8405 21.5353 34.5466 21.0875C35.2528 20.5523 35.6874 20.0281 35.8612 19.4929H40.1635C39.4573 21.6117 38.4035 23.119 37.002 24.091C35.6005 24.9757 33.9274 25.4999 31.9066 25.4999C30.5051 25.4999 29.2666 25.2378 28.1258 24.79C26.985 24.3531 26.105 23.7306 25.3119 22.8459C24.5188 22.0486 23.9104 21.0766 23.5519 19.9298C23.1173 18.783 22.9326 17.5488 22.9326 16.129C22.9326 14.8075 23.1065 13.5624 23.5519 12.4156C23.9973 11.2688 24.6057 10.2968 25.3988 9.41211C26.1919 8.61482 27.1589 7.9049 28.2127 7.46803C29.3535 7.03116 30.4942 6.75811 31.9066 6.75811C33.4059 6.75811 34.7205 7.02024 35.8612 7.64278C37.002 8.26532 37.882 8.96431 38.5882 10.0237C39.2944 10.9958 39.8159 12.1426 40.1744 13.3767C40.3482 14.6109 40.4351 15.856 40.3482 17.2649H27.6043C27.6043 18.7066 28.1258 20.0281 28.832 20.738ZM34.3728 11.4545C33.7535 10.8319 32.7866 10.4824 31.6459 10.4824C30.8528 10.4824 30.2444 10.6572 29.712 10.9193C29.1796 11.1814 28.832 11.5419 28.4843 11.8914C28.1367 12.2409 27.952 12.6886 27.8651 13.1255C27.7781 13.5624 27.6912 13.9228 27.6912 14.2723H35.6005C35.4267 12.9617 34.9812 12.077 34.3728 11.4545ZM26.6374 2.18188H36.4805V4.56283H26.6374V2.18188ZM47.2036 0.5V9.68523H47.2906C47.9098 8.62581 48.6921 7.9159 49.659 7.47902C50.6259 7.04215 51.5059 6.76911 52.4729 6.76911C53.7875 6.76911 54.8413 6.94386 55.6344 7.30428C56.4275 7.65377 57.1337 8.18894 57.5683 8.81148C58.0028 9.43403 58.3614 10.2204 58.5352 11.1051C58.709 11.9897 58.7959 12.9618 58.7959 14.1086V24.9757H53.9613V14.9932C53.9613 13.486 53.7005 12.4266 53.2551 11.7276C52.8097 11.0286 52.0383 10.6573 50.8975 10.6573C49.5829 10.6573 48.616 11.0941 48.0837 11.8041C47.4644 12.6013 47.2036 13.9229 47.2036 15.6922V24.9757H42.369V0.5H47.2036ZM62.3269 9.87102C62.8592 9.07373 63.4676 8.54948 64.2607 8.01431C65.0538 7.57744 65.9338 7.21702 66.9008 7.04227C67.8677 6.86753 68.8346 6.78015 69.8016 6.78015C70.6816 6.78015 71.5616 6.86753 72.5285 6.9549C73.4085 7.04227 74.2886 7.3044 74.9947 7.66482C75.7878 8.01431 76.3093 8.54948 76.8417 9.17202C77.2763 9.79457 77.5479 10.6792 77.5479 11.7386V21.0222C77.5479 21.8195 77.6348 22.6167 77.7217 23.3157C77.8086 24.0257 78.0694 24.6373 78.341 24.9977H73.4194C73.2456 24.8229 73.1587 24.4625 73.0717 24.2004C72.9848 23.9383 72.9848 23.5779 72.9848 23.3157C72.1917 24.113 71.3117 24.6373 70.2579 24.9977C69.204 25.3472 68.1502 25.4346 67.0963 25.4346C66.2163 25.4346 65.5101 25.3472 64.7279 25.0851C64.0217 24.9103 63.4133 24.5499 62.794 24.113C62.2617 23.6762 61.8271 23.141 61.4794 22.4311C61.2187 21.7212 61.0449 21.0222 61.0449 20.0501C61.0449 19.0781 61.2187 18.1934 61.5772 17.5709C61.9249 16.9483 62.3703 16.4241 62.8918 15.9763C63.4242 15.6268 64.1195 15.2664 64.8257 15.0916C65.5319 14.9169 66.2272 14.7421 67.0203 14.6548C67.7265 14.5674 68.4218 14.48 69.128 14.3926C69.8342 14.3053 70.4426 14.2179 70.9749 14.1305C71.5073 13.9558 71.9418 13.781 72.2895 13.508C72.6372 13.2459 72.7241 12.8854 72.7241 12.3612C72.7241 11.826 72.6372 11.3891 72.4633 11.127C72.2895 10.8649 72.0288 10.5919 71.7571 10.4171C71.4964 10.2424 71.1379 10.155 70.7902 10.0676C70.4426 9.98024 69.9971 9.98024 69.5625 9.98024C68.5956 9.98024 67.8894 10.155 67.3679 10.6028C66.8356 11.0396 66.4879 11.7496 66.401 12.6342H61.5664C61.5338 11.5421 61.8814 10.57 62.3269 9.87102ZM71.9092 16.7627C71.6485 16.85 71.29 16.9374 70.9423 17.0248C70.5947 17.1122 70.2361 17.1122 69.8016 17.1995C69.4539 17.2869 69.0085 17.2869 68.6608 17.3743C68.3131 17.4617 67.9546 17.549 67.607 17.6364C67.2593 17.7238 66.9008 17.8985 66.7269 18.0733C66.4662 18.248 66.2924 18.5102 66.1077 18.7832C65.8469 19.1327 65.8469 19.4931 65.8469 19.93C65.8469 20.3669 65.9338 20.7273 66.1077 20.9894C66.2815 21.2515 66.4553 21.5246 66.7269 21.6993C66.9877 21.8741 67.3462 21.9614 67.6939 22.0488C68.0415 22.1362 68.4001 22.1362 68.8346 22.1362C69.8016 22.1362 70.5077 21.9614 71.0292 21.6993C71.5616 21.3498 71.9093 20.9894 72.17 20.5525C72.4307 20.1157 72.6046 19.6679 72.6046 19.231C72.6915 18.7941 72.6915 18.4337 72.6915 18.1716V16.3149C72.4307 16.4896 72.17 16.6753 71.9092 16.7627ZM84.827 7.21702V9.69627H84.9139C85.5332 8.63686 86.3154 7.92694 87.2823 7.49007C88.2493 7.0532 89.3031 6.78015 90.2701 6.78015C91.5846 6.78015 92.6385 6.9549 93.4316 7.31532C94.3116 7.66482 94.9309 8.19998 95.3654 8.82253C95.8 9.44507 96.1586 10.2314 96.4193 11.1161C96.5931 12.0008 96.68 12.9728 96.68 14.1196V24.9868H91.8454V15.0043C91.8454 13.4971 91.5846 12.4376 91.1392 11.7386C90.7046 11.0287 89.9115 10.5919 88.673 10.5919C87.3584 10.5919 86.3915 11.127 85.7722 11.9134C85.1529 12.7107 84.8922 14.0322 84.8922 15.8016V25.0851H80.0575V7.21702C80.0793 7.21702 84.827 7.21702 84.827 7.21702ZM107.512 10.3952C106.719 10.3952 106.11 10.5699 105.578 10.9304C105.046 11.2799 104.611 11.7277 104.263 12.3393C103.916 12.8744 103.731 13.4861 103.557 14.196C103.383 14.9059 103.383 15.5175 103.383 16.2274C103.383 16.85 103.47 17.549 103.557 18.1715C103.731 18.8814 103.905 19.4057 104.263 19.9408C104.611 20.476 104.97 20.9129 105.491 21.2624C106.023 21.6119 106.632 21.7975 107.425 21.7975C108.566 21.7975 109.446 21.448 110.152 20.8255C110.771 20.203 111.206 19.3183 111.293 18.1715H115.953C115.606 20.5525 114.726 22.3218 113.226 23.5669C111.727 24.801 109.793 25.4236 107.425 25.4236C106.11 25.4236 104.872 25.1615 103.818 24.7137C102.677 24.2768 101.797 23.6542 101.004 22.857C100.211 22.0597 99.6025 21.0876 99.1571 20.0282C98.7225 18.8814 98.5378 17.7346 98.5378 16.4022C98.5378 14.9933 98.7117 13.7482 99.1571 12.6014C99.5917 11.4546 100.124 10.3952 100.917 9.51053C101.71 8.62587 102.677 8.00333 103.731 7.47908C104.872 7.04221 106.099 6.76917 107.512 6.76917C108.566 6.76917 109.533 6.94391 110.5 7.20604C111.466 7.46816 112.346 7.91595 113.053 8.4402C113.846 8.97537 114.454 9.67436 114.9 10.559C115.334 11.3563 115.606 12.4157 115.693 13.5625H110.945C110.76 11.4546 109.619 10.3952 107.512 10.3952ZM123.243 20.7382C123.95 21.4481 125.09 21.7976 126.405 21.7976C127.372 21.7976 128.252 21.5355 128.958 21.0877C129.664 20.5525 130.099 20.0283 130.273 19.4931H134.488C133.782 21.6119 132.728 23.1191 131.327 24.0912C129.925 24.9758 128.252 25.5001 126.231 25.5001C124.83 25.5001 123.591 25.238 122.45 24.7902C121.31 24.3533 120.43 23.7308 119.636 22.8461C118.843 22.0488 118.235 21.0768 117.876 19.93C117.442 18.7832 117.257 17.549 117.257 16.1292C117.257 14.8077 117.431 13.5626 117.876 12.4158C118.311 11.269 118.93 10.297 119.723 9.4123C120.516 8.615 121.483 7.90509 122.537 7.46822C123.678 7.03135 124.906 6.7583 126.231 6.7583C127.73 6.7583 129.045 7.02042 130.099 7.64297C131.24 8.26551 132.12 8.9645 132.826 10.0239C133.532 10.996 134.053 12.1427 134.412 13.3769C134.76 14.6111 134.847 15.9435 134.76 17.3524H122.016C122.016 18.7067 122.537 20.0283 123.243 20.7382ZM128.871 11.4547C128.252 10.8321 127.285 10.4826 126.144 10.4826C125.351 10.4826 124.743 10.6574 124.21 10.9195C123.678 11.1816 123.243 11.542 122.983 11.8915C122.722 12.241 122.45 12.6888 122.363 13.1257C122.277 13.5626 122.19 13.923 122.19 14.2725H130.099C129.838 12.9619 129.393 12.0772 128.871 11.4547Z" fill="#9CA3AF"/>
<path d="M12.3073 0.5C13.448 0.5 14.5019 0.587374 15.4688 0.849497C16.4357 1.02425 17.2288 1.38467 17.935 1.82154C18.6412 2.25841 19.1627 2.88095 19.5212 3.67824C19.8689 4.47553 20.0536 5.44757 20.0536 6.50699C20.0536 7.74115 19.7928 8.80056 19.1735 9.59785C18.6412 10.3951 17.772 11.1051 16.7073 11.6293C18.2066 12.0662 19.3474 12.8635 20.0427 13.9229C20.738 14.9823 21.1835 16.3038 21.1835 17.811C21.1835 19.0452 20.9227 20.1046 20.4773 20.9893C20.0427 21.8739 19.3365 22.6712 18.5434 23.1955C17.7503 23.7307 16.7834 24.1675 15.7295 24.4296C14.6757 24.6918 13.6218 24.8665 12.568 24.8665L0.791016 24.8884V0.5H12.3073ZM11.6011 10.3951C12.568 10.3951 13.3611 10.133 13.9695 9.68523C14.5779 9.23743 14.8495 8.45107 14.8495 7.47903C14.8495 6.94386 14.7626 6.41961 14.5888 6.07011C14.4149 5.72062 14.1542 5.44757 13.7957 5.18545C13.448 5.0107 13.0895 4.83595 12.6549 4.74858C12.2203 4.6612 11.7749 4.6612 11.2534 4.6612H6.15802V10.4061C6.15802 10.3951 11.6011 10.3951 11.6011 10.3951ZM11.8618 20.8255C12.3942 20.8255 12.9157 20.7381 13.3611 20.6507C13.7957 20.5633 14.2411 20.3886 14.5888 20.1155C14.9364 19.8425 15.208 19.5804 15.4688 19.1435C15.6426 18.7066 15.8165 18.1715 15.8165 17.5489C15.8165 16.3148 15.4688 15.4301 14.7626 14.8075C14.0564 14.2724 13.0895 14.0103 11.9487 14.0103H6.15802V20.8145H11.8618V20.8255ZM28.832 20.738C29.5382 21.4479 30.592 21.7974 31.9935 21.7974C32.9604 21.7974 33.8405 21.5353 34.5466 21.0875C35.2528 20.5523 35.6874 20.0281 35.8612 19.4929H40.1635C39.4573 21.6117 38.4035 23.119 37.002 24.091C35.6005 24.9757 33.9274 25.4999 31.9066 25.4999C30.5051 25.4999 29.2666 25.2378 28.1258 24.79C26.985 24.3531 26.105 23.7306 25.3119 22.8459C24.5188 22.0486 23.9104 21.0766 23.5519 19.9298C23.1173 18.783 22.9326 17.5488 22.9326 16.129C22.9326 14.8075 23.1065 13.5624 23.5519 12.4156C23.9973 11.2688 24.6057 10.2968 25.3988 9.41211C26.1919 8.61482 27.1589 7.9049 28.2127 7.46803C29.3535 7.03116 30.4942 6.75811 31.9066 6.75811C33.4059 6.75811 34.7205 7.02024 35.8612 7.64278C37.002 8.26532 37.882 8.96431 38.5882 10.0237C39.2944 10.9958 39.8159 12.1426 40.1744 13.3767C40.3482 14.6109 40.4351 15.856 40.3482 17.2649H27.6043C27.6043 18.7066 28.1258 20.0281 28.832 20.738ZM34.3728 11.4545C33.7535 10.8319 32.7866 10.4824 31.6459 10.4824C30.8528 10.4824 30.2444 10.6572 29.712 10.9193C29.1796 11.1814 28.832 11.5419 28.4843 11.8914C28.1367 12.2409 27.952 12.6886 27.8651 13.1255C27.7781 13.5624 27.6912 13.9228 27.6912 14.2723H35.6005C35.4267 12.9617 34.9812 12.077 34.3728 11.4545ZM26.6374 2.18188H36.4805V4.56283H26.6374V2.18188ZM47.2036 0.5V9.68523H47.2906C47.9098 8.62581 48.6921 7.9159 49.659 7.47902C50.6259 7.04215 51.5059 6.76911 52.4729 6.76911C53.7875 6.76911 54.8413 6.94386 55.6344 7.30428C56.4275 7.65377 57.1337 8.18894 57.5683 8.81148C58.0028 9.43403 58.3614 10.2204 58.5352 11.1051C58.709 11.9897 58.7959 12.9618 58.7959 14.1086V24.9757H53.9613V14.9932C53.9613 13.486 53.7005 12.4266 53.2551 11.7276C52.8097 11.0286 52.0383 10.6573 50.8975 10.6573C49.5829 10.6573 48.616 11.0941 48.0837 11.8041C47.4644 12.6013 47.2036 13.9229 47.2036 15.6922V24.9757H42.369V0.5H47.2036ZM62.3269 9.87102C62.8592 9.07373 63.4676 8.54948 64.2607 8.01431C65.0538 7.57744 65.9338 7.21702 66.9008 7.04227C67.8677 6.86753 68.8346 6.78015 69.8016 6.78015C70.6816 6.78015 71.5616 6.86753 72.5285 6.9549C73.4085 7.04227 74.2886 7.3044 74.9947 7.66482C75.7878 8.01431 76.3093 8.54948 76.8417 9.17202C77.2763 9.79457 77.5479 10.6792 77.5479 11.7386V21.0222C77.5479 21.8195 77.6348 22.6167 77.7217 23.3157C77.8086 24.0257 78.0694 24.6373 78.341 24.9977H73.4194C73.2456 24.8229 73.1587 24.4625 73.0717 24.2004C72.9848 23.9383 72.9848 23.5779 72.9848 23.3157C72.1917 24.113 71.3117 24.6373 70.2579 24.9977C69.204 25.3472 68.1502 25.4346 67.0963 25.4346C66.2163 25.4346 65.5101 25.3472 64.7279 25.0851C64.0217 24.9103 63.4133 24.5499 62.794 24.113C62.2617 23.6762 61.8271 23.141 61.4794 22.4311C61.2187 21.7212 61.0449 21.0222 61.0449 20.0501C61.0449 19.0781 61.2187 18.1934 61.5772 17.5709C61.9249 16.9483 62.3703 16.4241 62.8918 15.9763C63.4242 15.6268 64.1195 15.2664 64.8257 15.0916C65.5319 14.9169 66.2272 14.7421 67.0203 14.6548C67.7265 14.5674 68.4218 14.48 69.128 14.3926C69.8342 14.3053 70.4426 14.2179 70.9749 14.1305C71.5073 13.9558 71.9418 13.781 72.2895 13.508C72.6372 13.2459 72.7241 12.8854 72.7241 12.3612C72.7241 11.826 72.6372 11.3891 72.4633 11.127C72.2895 10.8649 72.0288 10.5919 71.7571 10.4171C71.4964 10.2424 71.1379 10.155 70.7902 10.0676C70.4426 9.98024 69.9971 9.98024 69.5625 9.98024C68.5956 9.98024 67.8894 10.155 67.3679 10.6028C66.8356 11.0396 66.4879 11.7496 66.401 12.6342H61.5664C61.5338 11.5421 61.8814 10.57 62.3269 9.87102ZM71.9092 16.7627C71.6485 16.85 71.29 16.9374 70.9423 17.0248C70.5947 17.1122 70.2361 17.1122 69.8016 17.1995C69.4539 17.2869 69.0085 17.2869 68.6608 17.3743C68.3131 17.4617 67.9546 17.549 67.607 17.6364C67.2593 17.7238 66.9008 17.8985 66.7269 18.0733C66.4662 18.248 66.2924 18.5102 66.1077 18.7832C65.8469 19.1327 65.8469 19.4931 65.8469 19.93C65.8469 20.3669 65.9338 20.7273 66.1077 20.9894C66.2815 21.2515 66.4553 21.5246 66.7269 21.6993C66.9877 21.8741 67.3462 21.9614 67.6939 22.0488C68.0415 22.1362 68.4001 22.1362 68.8346 22.1362C69.8016 22.1362 70.5077 21.9614 71.0292 21.6993C71.5616 21.3498 71.9093 20.9894 72.17 20.5525C72.4307 20.1157 72.6046 19.6679 72.6046 19.231C72.6915 18.7941 72.6915 18.4337 72.6915 18.1716V16.3149C72.4307 16.4896 72.17 16.6753 71.9092 16.7627ZM84.827 7.21702V9.69627H84.9139C85.5332 8.63686 86.3154 7.92694 87.2823 7.49007C88.2493 7.0532 89.3031 6.78015 90.2701 6.78015C91.5846 6.78015 92.6385 6.9549 93.4316 7.31532C94.3116 7.66482 94.9309 8.19998 95.3654 8.82253C95.8 9.44507 96.1586 10.2314 96.4193 11.1161C96.5931 12.0008 96.68 12.9728 96.68 14.1196V24.9868H91.8454V15.0043C91.8454 13.4971 91.5846 12.4376 91.1392 11.7386C90.7046 11.0287 89.9115 10.5919 88.673 10.5919C87.3584 10.5919 86.3915 11.127 85.7722 11.9134C85.1529 12.7107 84.8922 14.0322 84.8922 15.8016V25.0851H80.0575V7.21702C80.0793 7.21702 84.827 7.21702 84.827 7.21702ZM107.512 10.3952C106.719 10.3952 106.11 10.5699 105.578 10.9304C105.046 11.2799 104.611 11.7277 104.263 12.3393C103.916 12.8744 103.731 13.4861 103.557 14.196C103.383 14.9059 103.383 15.5175 103.383 16.2274C103.383 16.85 103.47 17.549 103.557 18.1715C103.731 18.8814 103.905 19.4057 104.263 19.9408C104.611 20.476 104.97 20.9129 105.491 21.2624C106.023 21.6119 106.632 21.7975 107.425 21.7975C108.566 21.7975 109.446 21.448 110.152 20.8255C110.771 20.203 111.206 19.3183 111.293 18.1715H115.953C115.606 20.5525 114.726 22.3218 113.226 23.5669C111.727 24.801 109.793 25.4236 107.425 25.4236C106.11 25.4236 104.872 25.1615 103.818 24.7137C102.677 24.2768 101.797 23.6542 101.004 22.857C100.211 22.0597 99.6025 21.0876 99.1571 20.0282C98.7225 18.8814 98.5378 17.7346 98.5378 16.4022C98.5378 14.9933 98.7117 13.7482 99.1571 12.6014C99.5917 11.4546 100.124 10.3952 100.917 9.51053C101.71 8.62587 102.677 8.00333 103.731 7.47908C104.872 7.04221 106.099 6.76917 107.512 6.76917C108.566 6.76917 109.533 6.94391 110.5 7.20604C111.466 7.46816 112.346 7.91595 113.053 8.4402C113.846 8.97537 114.454 9.67436 114.9 10.559C115.334 11.3563 115.606 12.4157 115.693 13.5625H110.945C110.76 11.4546 109.619 10.3952 107.512 10.3952ZM123.243 20.7382C123.95 21.4481 125.09 21.7976 126.405 21.7976C127.372 21.7976 128.252 21.5355 128.958 21.0877C129.664 20.5525 130.099 20.0283 130.273 19.4931H134.488C133.782 21.6119 132.728 23.1191 131.327 24.0912C129.925 24.9758 128.252 25.5001 126.231 25.5001C124.83 25.5001 123.591 25.238 122.45 24.7902C121.31 24.3533 120.43 23.7308 119.636 22.8461C118.843 22.0488 118.235 21.0768 117.876 19.93C117.442 18.7832 117.257 17.549 117.257 16.1292C117.257 14.8077 117.431 13.5626 117.876 12.4158C118.311 11.269 118.93 10.297 119.723 9.4123C120.516 8.615 121.483 7.90509 122.537 7.46822C123.678 7.03135 124.906 6.7583 126.231 6.7583C127.73 6.7583 129.045 7.02042 130.099 7.64297C131.24 8.26551 132.12 8.9645 132.826 10.0239C133.532 10.996 134.053 12.1427 134.412 13.3769C134.76 14.6111 134.847 15.9435 134.76 17.3524H122.016C122.016 18.7067 122.537 20.0283 123.243 20.7382ZM128.871 11.4547C128.252 10.8321 127.285 10.4826 126.144 10.4826C125.351 10.4826 124.743 10.6574 124.21 10.9195C123.678 11.1816 123.243 11.542 122.983 11.8915C122.722 12.241 122.45 12.6888 122.363 13.1257C122.277 13.5626 122.19 13.923 122.19 14.2725H130.099C129.838 12.9619 129.393 12.0772 128.871 11.4547Z" fill="#9CA3AF"/>
</svg>
