<svg width="124" height="30" viewBox="0 0 124 30" fill="none" xmlns="http://www.w3.org/2000/svg">
<path d="M122.062 28.0817C122.138 28.0824 122.213 28.0677 122.282 28.0383C122.352 28.0089 122.415 27.9655 122.467 27.9109C122.519 27.8563 122.56 27.7915 122.586 27.7206C122.612 27.6497 122.623 27.5743 122.618 27.4989C122.618 27.0856 122.369 26.8881 121.857 26.8881H121.029V29.052H121.34V28.1088H121.723L121.732 28.1202L122.325 29.052H122.658L122.019 28.0876L122.062 28.0817ZM121.702 27.8649H121.341V27.1334H121.799C122.035 27.1334 122.304 27.1719 122.304 27.481C122.304 27.8364 122.032 27.8649 121.7 27.8649M0.791016 4.42096H5.38586V21.1371H13.8923V25.3722H0.791016V4.42096ZM15.9237 11.1666H20.3378V25.3644H15.9237V11.1666ZM18.1308 4.1082C18.6372 4.10829 19.1322 4.25836 19.5533 4.53944C19.9743 4.82051 20.3024 5.21997 20.4962 5.6873C20.6899 6.15462 20.7406 6.66883 20.6417 7.16491C20.5428 7.66098 20.2989 8.11663 19.9408 8.47426C19.5827 8.83188 19.1264 9.07541 18.6297 9.17406C18.133 9.2727 17.6181 9.22203 17.1503 9.02844C16.6824 8.83486 16.2825 8.50706 16.0012 8.08649C15.7198 7.66593 15.5696 7.17148 15.5696 6.66568C15.5696 6.32979 15.6359 5.99719 15.7646 5.68687C15.8933 5.37655 16.082 5.0946 16.3198 4.85711C16.5576 4.61962 16.84 4.43125 17.1507 4.30275C17.4614 4.17425 17.7945 4.10814 18.1308 4.1082ZM38.8027 4.41774H43.2169V16.9388L48.2196 11.1602H53.6315L47.8379 17.7333L53.5096 25.3703H47.9616L43.2757 18.3523H43.2178V25.3694H38.8036L38.8027 4.41774ZM22.7854 11.168H27.0243V13.1083H27.0846C27.508 12.3838 28.1205 11.7878 28.8566 11.3839C29.5927 10.9799 30.4249 10.7833 31.2642 10.8149C35.7404 10.8149 36.5644 13.7563 36.5644 17.5776V25.3635H32.1503V18.4607C32.1503 16.813 32.1199 14.695 29.8512 14.695C27.5568 14.695 27.2027 16.4892 27.2027 18.3408V25.3616H22.7886L22.7854 11.168ZM62.9274 16.6141C62.9358 16.2564 62.8715 15.9008 62.7383 15.5687C62.605 15.2366 62.4057 14.9349 62.1523 14.682C61.8989 14.4291 61.5968 14.2302 61.2642 14.0974C60.9315 13.9646 60.5754 13.9005 60.2173 13.9092C59.446 13.8613 58.6868 14.118 58.1033 14.624C57.5198 15.13 57.1587 15.8447 57.098 16.6141H62.9274ZM66.6665 22.9056C65.933 23.794 65.0109 24.5084 63.9669 24.9969C62.9229 25.4855 61.7831 25.736 60.6302 25.7304C56.2161 25.7304 52.682 22.7876 52.682 18.2306C52.682 13.6736 56.2156 10.7322 60.6302 10.7322C64.7561 10.7322 67.3434 13.6713 67.3434 18.2306V19.6129H57.098C57.2255 20.3969 57.6325 21.1084 58.2438 21.6163C58.8551 22.1243 59.6296 22.3944 60.4247 22.3771C61.053 22.3732 61.6703 22.2124 62.2205 21.9094C62.7707 21.6063 63.2362 21.1707 63.5748 20.6421L66.6665 22.9056ZM76.5441 14.5985C74.337 14.5985 73.0128 16.0704 73.0128 18.215C73.0128 20.3596 74.3366 21.8329 76.5441 21.8329C78.7516 21.8329 80.0786 20.3633 80.0786 18.215C80.0786 16.0667 78.7539 14.5985 76.5441 14.5985ZM84.1424 25.3616H80.0786V23.4788H80.0184C79.5086 24.1636 78.8473 24.7217 78.0861 25.1094C77.325 25.4972 76.4844 25.7042 75.63 25.7143C71.3887 25.7143 68.595 22.6572 68.595 18.3339C68.595 14.3634 71.0673 10.7175 75.1315 10.7175C76.9584 10.7175 78.6647 11.2167 79.6657 12.6004H79.7236V4.41636H84.1419L84.1424 25.3616ZM113.942 25.3699H109.528V18.4657C109.528 16.8194 109.498 14.7 107.232 14.7C104.933 14.7 104.581 16.4938 104.581 18.3459V25.3694H100.167V11.1717H104.405V13.112H104.464C104.888 12.3878 105.501 11.792 106.237 11.3882C106.973 10.9843 107.806 10.7874 108.645 10.8186C113.119 10.8186 113.944 13.7577 113.944 17.5812L113.942 25.3699ZM95.1865 9.23098C94.6798 9.23107 94.1846 9.08111 93.7633 8.80006C93.3419 8.51902 93.0136 8.11951 92.8196 7.65206C92.6257 7.1846 92.5748 6.67021 92.6736 6.17391C92.7723 5.67761 93.0162 5.2217 93.3744 4.86384C93.7326 4.50598 94.189 4.26223 94.6858 4.16342C95.1827 4.06462 95.6978 4.11519 96.1659 4.30875C96.634 4.5023 97.0341 4.83015 97.3156 5.25082C97.5972 5.6715 97.7475 6.16611 97.7476 6.67212C97.7477 7.00809 97.6815 7.34079 97.5528 7.65121C97.4241 7.96163 97.2355 8.2437 96.9977 8.48131C96.7598 8.71892 96.4775 8.90742 96.1667 9.03605C95.8559 9.16468 95.5229 9.23092 95.1865 9.23098ZM97.3935 25.3699H92.9748V11.1717H97.3935V25.3699ZM116.143 0.0200935H90.7567C90.1805 0.0135993 89.6253 0.23584 89.2131 0.637979C88.8009 1.04012 88.5654 1.58926 88.5584 2.16472V27.6243C88.5652 28.2 88.8005 28.7495 89.2127 29.1521C89.6249 29.5546 90.1802 29.7773 90.7567 29.7712H116.143C116.72 29.7784 117.277 29.5564 117.691 29.1538C118.105 28.7513 118.342 28.2012 118.35 27.6243V2.16289C118.341 1.58628 118.104 1.03652 117.691 0.634386C117.277 0.232257 116.72 0.0106511 116.143 0.0182559M121.74 25.9242C121.203 25.9293 120.69 26.1467 120.313 26.5287C119.936 26.9107 119.725 27.4263 119.728 27.9628C119.731 28.4992 119.946 29.0127 120.326 29.3911C120.707 29.7695 121.222 29.9819 121.759 29.9819C122.296 29.9819 122.812 29.7695 123.192 29.3911C123.573 29.0127 123.788 28.4992 123.791 27.9628C123.793 27.4263 123.583 26.9107 123.206 26.5287C122.829 26.1467 122.316 25.9293 121.779 25.9242H121.74ZM121.74 29.7496C121.388 29.7555 121.042 29.6569 120.745 29.4663C120.449 29.2757 120.216 29.0017 120.076 28.6789C119.936 28.3561 119.895 27.999 119.958 27.6528C120.021 27.3066 120.185 26.9868 120.43 26.7339C120.675 26.481 120.989 26.3063 121.334 26.2319C121.678 26.1575 122.037 26.1868 122.364 26.316C122.692 26.4452 122.974 26.6686 123.175 26.9579C123.375 27.2471 123.485 27.5893 123.491 27.9411C123.491 27.9512 123.491 27.9609 123.491 27.971C123.501 28.4325 123.327 28.8791 123.007 29.2124C122.688 29.5458 122.248 29.7387 121.786 29.7487H121.74" fill="#9CA3AF"/>
<path d="M122.062 28.0817C122.138 28.0824 122.213 28.0677 122.282 28.0383C122.352 28.0089 122.415 27.9655 122.467 27.9109C122.519 27.8563 122.56 27.7915 122.586 27.7206C122.612 27.6497 122.623 27.5743 122.618 27.4989C122.618 27.0856 122.369 26.8881 121.857 26.8881H121.029V29.052H121.34V28.1088H121.723L121.732 28.1202L122.325 29.052H122.658L122.019 28.0876L122.062 28.0817ZM121.702 27.8649H121.341V27.1334H121.799C122.035 27.1334 122.304 27.1719 122.304 27.481C122.304 27.8364 122.032 27.8649 121.7 27.8649M0.791016 4.42096H5.38586V21.1371H13.8923V25.3722H0.791016V4.42096ZM15.9237 11.1666H20.3378V25.3644H15.9237V11.1666ZM18.1308 4.1082C18.6372 4.10829 19.1322 4.25836 19.5533 4.53944C19.9743 4.82051 20.3024 5.21997 20.4962 5.6873C20.6899 6.15462 20.7406 6.66883 20.6417 7.16491C20.5428 7.66098 20.2989 8.11663 19.9408 8.47426C19.5827 8.83188 19.1264 9.07541 18.6297 9.17406C18.133 9.2727 17.6181 9.22203 17.1503 9.02844C16.6824 8.83486 16.2825 8.50706 16.0012 8.08649C15.7198 7.66593 15.5696 7.17148 15.5696 6.66568C15.5696 6.32979 15.6359 5.99719 15.7646 5.68687C15.8933 5.37655 16.082 5.0946 16.3198 4.85711C16.5576 4.61962 16.84 4.43125 17.1507 4.30275C17.4614 4.17425 17.7945 4.10814 18.1308 4.1082ZM38.8027 4.41774H43.2169V16.9388L48.2196 11.1602H53.6315L47.8379 17.7333L53.5096 25.3703H47.9616L43.2757 18.3523H43.2178V25.3694H38.8036L38.8027 4.41774ZM22.7854 11.168H27.0243V13.1083H27.0846C27.508 12.3838 28.1205 11.7878 28.8566 11.3839C29.5927 10.9799 30.4249 10.7833 31.2642 10.8149C35.7404 10.8149 36.5644 13.7563 36.5644 17.5776V25.3635H32.1503V18.4607C32.1503 16.813 32.1199 14.695 29.8512 14.695C27.5568 14.695 27.2027 16.4892 27.2027 18.3408V25.3616H22.7886L22.7854 11.168ZM62.9274 16.6141C62.9358 16.2564 62.8715 15.9008 62.7383 15.5687C62.605 15.2366 62.4057 14.9349 62.1523 14.682C61.8989 14.4291 61.5968 14.2302 61.2642 14.0974C60.9315 13.9646 60.5754 13.9005 60.2173 13.9092C59.446 13.8613 58.6868 14.118 58.1033 14.624C57.5198 15.13 57.1587 15.8447 57.098 16.6141H62.9274ZM66.6665 22.9056C65.933 23.794 65.0109 24.5084 63.9669 24.9969C62.9229 25.4855 61.7831 25.736 60.6302 25.7304C56.2161 25.7304 52.682 22.7876 52.682 18.2306C52.682 13.6736 56.2156 10.7322 60.6302 10.7322C64.7561 10.7322 67.3434 13.6713 67.3434 18.2306V19.6129H57.098C57.2255 20.3969 57.6325 21.1084 58.2438 21.6163C58.8551 22.1243 59.6296 22.3944 60.4247 22.3771C61.053 22.3732 61.6703 22.2124 62.2205 21.9094C62.7707 21.6063 63.2362 21.1707 63.5748 20.6421L66.6665 22.9056ZM76.5441 14.5985C74.337 14.5985 73.0128 16.0704 73.0128 18.215C73.0128 20.3596 74.3366 21.8329 76.5441 21.8329C78.7516 21.8329 80.0786 20.3633 80.0786 18.215C80.0786 16.0667 78.7539 14.5985 76.5441 14.5985ZM84.1424 25.3616H80.0786V23.4788H80.0184C79.5086 24.1636 78.8473 24.7217 78.0861 25.1094C77.325 25.4972 76.4844 25.7042 75.63 25.7143C71.3887 25.7143 68.595 22.6572 68.595 18.3339C68.595 14.3634 71.0673 10.7175 75.1315 10.7175C76.9584 10.7175 78.6647 11.2167 79.6657 12.6004H79.7236V4.41636H84.1419L84.1424 25.3616ZM113.942 25.3699H109.528V18.4657C109.528 16.8194 109.498 14.7 107.232 14.7C104.933 14.7 104.581 16.4938 104.581 18.3459V25.3694H100.167V11.1717H104.405V13.112H104.464C104.888 12.3878 105.501 11.792 106.237 11.3882C106.973 10.9843 107.806 10.7874 108.645 10.8186C113.119 10.8186 113.944 13.7577 113.944 17.5812L113.942 25.3699ZM95.1865 9.23098C94.6798 9.23107 94.1846 9.08111 93.7633 8.80006C93.3419 8.51902 93.0136 8.11951 92.8196 7.65206C92.6257 7.1846 92.5748 6.67021 92.6736 6.17391C92.7723 5.67761 93.0162 5.2217 93.3744 4.86384C93.7326 4.50598 94.189 4.26223 94.6858 4.16342C95.1827 4.06462 95.6978 4.11519 96.1659 4.30875C96.634 4.5023 97.0341 4.83015 97.3156 5.25082C97.5972 5.6715 97.7475 6.16611 97.7476 6.67212C97.7477 7.00809 97.6815 7.34079 97.5528 7.65121C97.4241 7.96163 97.2355 8.2437 96.9977 8.48131C96.7598 8.71892 96.4775 8.90742 96.1667 9.03605C95.8559 9.16468 95.5229 9.23092 95.1865 9.23098ZM97.3935 25.3699H92.9748V11.1717H97.3935V25.3699ZM116.143 0.0200935H90.7567C90.1805 0.0135993 89.6253 0.23584 89.2131 0.637979C88.8009 1.04012 88.5654 1.58926 88.5584 2.16472V27.6243C88.5652 28.2 88.8005 28.7495 89.2127 29.1521C89.6249 29.5546 90.1802 29.7773 90.7567 29.7712H116.143C116.72 29.7784 117.277 29.5564 117.691 29.1538C118.105 28.7513 118.342 28.2012 118.35 27.6243V2.16289C118.341 1.58628 118.104 1.03652 117.691 0.634386C117.277 0.232257 116.72 0.0106511 116.143 0.0182559M121.74 25.9242C121.203 25.9293 120.69 26.1467 120.313 26.5287C119.936 26.9107 119.725 27.4263 119.728 27.9628C119.731 28.4992 119.946 29.0127 120.326 29.3911C120.707 29.7695 121.222 29.9819 121.759 29.9819C122.296 29.9819 122.812 29.7695 123.192 29.3911C123.573 29.0127 123.788 28.4992 123.791 27.9628C123.793 27.4263 123.583 26.9107 123.206 26.5287C122.829 26.1467 122.316 25.9293 121.779 25.9242H121.74ZM121.74 29.7496C121.388 29.7555 121.042 29.6569 120.745 29.4663C120.449 29.2757 120.216 29.0017 120.076 28.6789C119.936 28.3561 119.895 27.999 119.958 27.6528C120.021 27.3066 120.185 26.9868 120.43 26.7339C120.675 26.481 120.989 26.3063 121.334 26.2319C121.678 26.1575 122.037 26.1868 122.364 26.316C122.692 26.4452 122.974 26.6686 123.175 26.9579C123.375 27.2471 123.485 27.5893 123.491 27.9411C123.491 27.9512 123.491 27.9609 123.491 27.971C123.501 28.4325 123.327 28.8791 123.007 29.2124C122.688 29.5458 122.248 29.7387 121.786 29.7487H121.74" fill="#9CA3AF"/>
<path d="M122.062 28.0817C122.138 28.0824 122.213 28.0677 122.282 28.0383C122.352 28.0089 122.415 27.9655 122.467 27.9109C122.519 27.8563 122.56 27.7915 122.586 27.7206C122.612 27.6497 122.623 27.5743 122.618 27.4989C122.618 27.0856 122.369 26.8881 121.857 26.8881H121.029V29.052H121.34V28.1088H121.723L121.732 28.1202L122.325 29.052H122.658L122.019 28.0876L122.062 28.0817ZM121.702 27.8649H121.341V27.1334H121.799C122.035 27.1334 122.304 27.1719 122.304 27.481C122.304 27.8364 122.032 27.8649 121.7 27.8649M0.791016 4.42096H5.38586V21.1371H13.8923V25.3722H0.791016V4.42096ZM15.9237 11.1666H20.3378V25.3644H15.9237V11.1666ZM18.1308 4.1082C18.6372 4.10829 19.1322 4.25836 19.5533 4.53944C19.9743 4.82051 20.3024 5.21997 20.4962 5.6873C20.6899 6.15462 20.7406 6.66883 20.6417 7.16491C20.5428 7.66098 20.2989 8.11663 19.9408 8.47426C19.5827 8.83188 19.1264 9.07541 18.6297 9.17406C18.133 9.2727 17.6181 9.22203 17.1503 9.02844C16.6824 8.83486 16.2825 8.50706 16.0012 8.08649C15.7198 7.66593 15.5696 7.17148 15.5696 6.66568C15.5696 6.32979 15.6359 5.99719 15.7646 5.68687C15.8933 5.37655 16.082 5.0946 16.3198 4.85711C16.5576 4.61962 16.84 4.43125 17.1507 4.30275C17.4614 4.17425 17.7945 4.10814 18.1308 4.1082ZM38.8027 4.41774H43.2169V16.9388L48.2196 11.1602H53.6315L47.8379 17.7333L53.5096 25.3703H47.9616L43.2757 18.3523H43.2178V25.3694H38.8036L38.8027 4.41774ZM22.7854 11.168H27.0243V13.1083H27.0846C27.508 12.3838 28.1205 11.7878 28.8566 11.3839C29.5927 10.9799 30.4249 10.7833 31.2642 10.8149C35.7404 10.8149 36.5644 13.7563 36.5644 17.5776V25.3635H32.1503V18.4607C32.1503 16.813 32.1199 14.695 29.8512 14.695C27.5568 14.695 27.2027 16.4892 27.2027 18.3408V25.3616H22.7886L22.7854 11.168ZM62.9274 16.6141C62.9358 16.2564 62.8715 15.9008 62.7383 15.5687C62.605 15.2366 62.4057 14.9349 62.1523 14.682C61.8989 14.4291 61.5968 14.2302 61.2642 14.0974C60.9315 13.9646 60.5754 13.9005 60.2173 13.9092C59.446 13.8613 58.6868 14.118 58.1033 14.624C57.5198 15.13 57.1587 15.8447 57.098 16.6141H62.9274ZM66.6665 22.9056C65.933 23.794 65.0109 24.5084 63.9669 24.9969C62.9229 25.4855 61.7831 25.736 60.6302 25.7304C56.2161 25.7304 52.682 22.7876 52.682 18.2306C52.682 13.6736 56.2156 10.7322 60.6302 10.7322C64.7561 10.7322 67.3434 13.6713 67.3434 18.2306V19.6129H57.098C57.2255 20.3969 57.6325 21.1084 58.2438 21.6163C58.8551 22.1243 59.6296 22.3944 60.4247 22.3771C61.053 22.3732 61.6703 22.2124 62.2205 21.9094C62.7707 21.6063 63.2362 21.1707 63.5748 20.6421L66.6665 22.9056ZM76.5441 14.5985C74.337 14.5985 73.0128 16.0704 73.0128 18.215C73.0128 20.3596 74.3366 21.8329 76.5441 21.8329C78.7516 21.8329 80.0786 20.3633 80.0786 18.215C80.0786 16.0667 78.7539 14.5985 76.5441 14.5985ZM84.1424 25.3616H80.0786V23.4788H80.0184C79.5086 24.1636 78.8473 24.7217 78.0861 25.1094C77.325 25.4972 76.4844 25.7042 75.63 25.7143C71.3887 25.7143 68.595 22.6572 68.595 18.3339C68.595 14.3634 71.0673 10.7175 75.1315 10.7175C76.9584 10.7175 78.6647 11.2167 79.6657 12.6004H79.7236V4.41636H84.1419L84.1424 25.3616ZM113.942 25.3699H109.528V18.4657C109.528 16.8194 109.498 14.7 107.232 14.7C104.933 14.7 104.581 16.4938 104.581 18.3459V25.3694H100.167V11.1717H104.405V13.112H104.464C104.888 12.3878 105.501 11.792 106.237 11.3882C106.973 10.9843 107.806 10.7874 108.645 10.8186C113.119 10.8186 113.944 13.7577 113.944 17.5812L113.942 25.3699ZM95.1865 9.23098C94.6798 9.23107 94.1846 9.08111 93.7633 8.80006C93.3419 8.51902 93.0136 8.11951 92.8196 7.65206C92.6257 7.1846 92.5748 6.67021 92.6736 6.17391C92.7723 5.67761 93.0162 5.2217 93.3744 4.86384C93.7326 4.50598 94.189 4.26223 94.6858 4.16342C95.1827 4.06462 95.6978 4.11519 96.1659 4.30875C96.634 4.5023 97.0341 4.83015 97.3156 5.25082C97.5972 5.6715 97.7475 6.16611 97.7476 6.67212C97.7477 7.00809 97.6815 7.34079 97.5528 7.65121C97.4241 7.96163 97.2355 8.2437 96.9977 8.48131C96.7598 8.71892 96.4775 8.90742 96.1667 9.03605C95.8559 9.16468 95.5229 9.23092 95.1865 9.23098ZM97.3935 25.3699H92.9748V11.1717H97.3935V25.3699ZM116.143 0.0200935H90.7567C90.1805 0.0135993 89.6253 0.23584 89.2131 0.637979C88.8009 1.04012 88.5654 1.58926 88.5584 2.16472V27.6243C88.5652 28.2 88.8005 28.7495 89.2127 29.1521C89.6249 29.5546 90.1802 29.7773 90.7567 29.7712H116.143C116.72 29.7784 117.277 29.5564 117.691 29.1538C118.105 28.7513 118.342 28.2012 118.35 27.6243V2.16289C118.341 1.58628 118.104 1.03652 117.691 0.634386C117.277 0.232257 116.72 0.0106511 116.143 0.0182559M121.74 25.9242C121.203 25.9293 120.69 26.1467 120.313 26.5287C119.936 26.9107 119.725 27.4263 119.728 27.9628C119.731 28.4992 119.946 29.0127 120.326 29.3911C120.707 29.7695 121.222 29.9819 121.759 29.9819C122.296 29.9819 122.812 29.7695 123.192 29.3911C123.573 29.0127 123.788 28.4992 123.791 27.9628C123.793 27.4263 123.583 26.9107 123.206 26.5287C122.829 26.1467 122.316 25.9293 121.779 25.9242H121.74ZM121.74 29.7496C121.388 29.7555 121.042 29.6569 120.745 29.4663C120.449 29.2757 120.216 29.0017 120.076 28.6789C119.936 28.3561 119.895 27.999 119.958 27.6528C120.021 27.3066 120.185 26.9868 120.43 26.7339C120.675 26.481 120.989 26.3063 121.334 26.2319C121.678 26.1575 122.037 26.1868 122.364 26.316C122.692 26.4452 122.974 26.6686 123.175 26.9579C123.375 27.2471 123.485 27.5893 123.491 27.9411C123.491 27.9512 123.491 27.9609 123.491 27.971C123.501 28.4325 123.327 28.8791 123.007 29.2124C122.688 29.5458 122.248 29.7387 121.786 29.7487H121.74" fill="#9CA3AF"/>
<path d="M122.062 28.0817C122.138 28.0824 122.213 28.0677 122.282 28.0383C122.352 28.0089 122.415 27.9655 122.467 27.9109C122.519 27.8563 122.56 27.7915 122.586 27.7206C122.612 27.6497 122.623 27.5743 122.618 27.4989C122.618 27.0856 122.369 26.8881 121.857 26.8881H121.029V29.052H121.34V28.1088H121.723L121.732 28.1202L122.325 29.052H122.658L122.019 28.0876L122.062 28.0817ZM121.702 27.8649H121.341V27.1334H121.799C122.035 27.1334 122.304 27.1719 122.304 27.481C122.304 27.8364 122.032 27.8649 121.7 27.8649M0.791016 4.42096H5.38586V21.1371H13.8923V25.3722H0.791016V4.42096ZM15.9237 11.1666H20.3378V25.3644H15.9237V11.1666ZM18.1308 4.1082C18.6372 4.10829 19.1322 4.25836 19.5533 4.53944C19.9743 4.82051 20.3024 5.21997 20.4962 5.6873C20.6899 6.15462 20.7406 6.66883 20.6417 7.16491C20.5428 7.66098 20.2989 8.11663 19.9408 8.47426C19.5827 8.83188 19.1264 9.07541 18.6297 9.17406C18.133 9.2727 17.6181 9.22203 17.1503 9.02844C16.6824 8.83486 16.2825 8.50706 16.0012 8.08649C15.7198 7.66593 15.5696 7.17148 15.5696 6.66568C15.5696 6.32979 15.6359 5.99719 15.7646 5.68687C15.8933 5.37655 16.082 5.0946 16.3198 4.85711C16.5576 4.61962 16.84 4.43125 17.1507 4.30275C17.4614 4.17425 17.7945 4.10814 18.1308 4.1082ZM38.8027 4.41774H43.2169V16.9388L48.2196 11.1602H53.6315L47.8379 17.7333L53.5096 25.3703H47.9616L43.2757 18.3523H43.2178V25.3694H38.8036L38.8027 4.41774ZM22.7854 11.168H27.0243V13.1083H27.0846C27.508 12.3838 28.1205 11.7878 28.8566 11.3839C29.5927 10.9799 30.4249 10.7833 31.2642 10.8149C35.7404 10.8149 36.5644 13.7563 36.5644 17.5776V25.3635H32.1503V18.4607C32.1503 16.813 32.1199 14.695 29.8512 14.695C27.5568 14.695 27.2027 16.4892 27.2027 18.3408V25.3616H22.7886L22.7854 11.168ZM62.9274 16.6141C62.9358 16.2564 62.8715 15.9008 62.7383 15.5687C62.605 15.2366 62.4057 14.9349 62.1523 14.682C61.8989 14.4291 61.5968 14.2302 61.2642 14.0974C60.9315 13.9646 60.5754 13.9005 60.2173 13.9092C59.446 13.8613 58.6868 14.118 58.1033 14.624C57.5198 15.13 57.1587 15.8447 57.098 16.6141H62.9274ZM66.6665 22.9056C65.933 23.794 65.0109 24.5084 63.9669 24.9969C62.9229 25.4855 61.7831 25.736 60.6302 25.7304C56.2161 25.7304 52.682 22.7876 52.682 18.2306C52.682 13.6736 56.2156 10.7322 60.6302 10.7322C64.7561 10.7322 67.3434 13.6713 67.3434 18.2306V19.6129H57.098C57.2255 20.3969 57.6325 21.1084 58.2438 21.6163C58.8551 22.1243 59.6296 22.3944 60.4247 22.3771C61.053 22.3732 61.6703 22.2124 62.2205 21.9094C62.7707 21.6063 63.2362 21.1707 63.5748 20.6421L66.6665 22.9056ZM76.5441 14.5985C74.337 14.5985 73.0128 16.0704 73.0128 18.215C73.0128 20.3596 74.3366 21.8329 76.5441 21.8329C78.7516 21.8329 80.0786 20.3633 80.0786 18.215C80.0786 16.0667 78.7539 14.5985 76.5441 14.5985ZM84.1424 25.3616H80.0786V23.4788H80.0184C79.5086 24.1636 78.8473 24.7217 78.0861 25.1094C77.325 25.4972 76.4844 25.7042 75.63 25.7143C71.3887 25.7143 68.595 22.6572 68.595 18.3339C68.595 14.3634 71.0673 10.7175 75.1315 10.7175C76.9584 10.7175 78.6647 11.2167 79.6657 12.6004H79.7236V4.41636H84.1419L84.1424 25.3616ZM113.942 25.3699H109.528V18.4657C109.528 16.8194 109.498 14.7 107.232 14.7C104.933 14.7 104.581 16.4938 104.581 18.3459V25.3694H100.167V11.1717H104.405V13.112H104.464C104.888 12.3878 105.501 11.792 106.237 11.3882C106.973 10.9843 107.806 10.7874 108.645 10.8186C113.119 10.8186 113.944 13.7577 113.944 17.5812L113.942 25.3699ZM95.1865 9.23098C94.6798 9.23107 94.1846 9.08111 93.7633 8.80006C93.3419 8.51902 93.0136 8.11951 92.8196 7.65206C92.6257 7.1846 92.5748 6.67021 92.6736 6.17391C92.7723 5.67761 93.0162 5.2217 93.3744 4.86384C93.7326 4.50598 94.189 4.26223 94.6858 4.16342C95.1827 4.06462 95.6978 4.11519 96.1659 4.30875C96.634 4.5023 97.0341 4.83015 97.3156 5.25082C97.5972 5.6715 97.7475 6.16611 97.7476 6.67212C97.7477 7.00809 97.6815 7.34079 97.5528 7.65121C97.4241 7.96163 97.2355 8.2437 96.9977 8.48131C96.7598 8.71892 96.4775 8.90742 96.1667 9.03605C95.8559 9.16468 95.5229 9.23092 95.1865 9.23098ZM97.3935 25.3699H92.9748V11.1717H97.3935V25.3699ZM116.143 0.0200935H90.7567C90.1805 0.0135993 89.6253 0.23584 89.2131 0.637979C88.8009 1.04012 88.5654 1.58926 88.5584 2.16472V27.6243C88.5652 28.2 88.8005 28.7495 89.2127 29.1521C89.6249 29.5546 90.1802 29.7773 90.7567 29.7712H116.143C116.72 29.7784 117.277 29.5564 117.691 29.1538C118.105 28.7513 118.342 28.2012 118.35 27.6243V2.16289C118.341 1.58628 118.104 1.03652 117.691 0.634386C117.277 0.232257 116.72 0.0106511 116.143 0.0182559M121.74 25.9242C121.203 25.9293 120.69 26.1467 120.313 26.5287C119.936 26.9107 119.725 27.4263 119.728 27.9628C119.731 28.4992 119.946 29.0127 120.326 29.3911C120.707 29.7695 121.222 29.9819 121.759 29.9819C122.296 29.9819 122.812 29.7695 123.192 29.3911C123.573 29.0127 123.788 28.4992 123.791 27.9628C123.793 27.4263 123.583 26.9107 123.206 26.5287C122.829 26.1467 122.316 25.9293 121.779 25.9242H121.74ZM121.74 29.7496C121.388 29.7555 121.042 29.6569 120.745 29.4663C120.449 29.2757 120.216 29.0017 120.076 28.6789C119.936 28.3561 119.895 27.999 119.958 27.6528C120.021 27.3066 120.185 26.9868 120.43 26.7339C120.675 26.481 120.989 26.3063 121.334 26.2319C121.678 26.1575 122.037 26.1868 122.364 26.316C122.692 26.4452 122.974 26.6686 123.175 26.9579C123.375 27.2471 123.485 27.5893 123.491 27.9411C123.491 27.9512 123.491 27.9609 123.491 27.971C123.501 28.4325 123.327 28.8791 123.007 29.2124C122.688 29.5458 122.248 29.7387 121.786 29.7487H121.74" fill="#9CA3AF"/>
<path d="M122.062 28.0817C122.138 28.0824 122.213 28.0677 122.282 28.0383C122.352 28.0089 122.415 27.9655 122.467 27.9109C122.519 27.8563 122.56 27.7915 122.586 27.7206C122.612 27.6497 122.623 27.5743 122.618 27.4989C122.618 27.0856 122.369 26.8881 121.857 26.8881H121.029V29.052H121.34V28.1088H121.723L121.732 28.1202L122.325 29.052H122.658L122.019 28.0876L122.062 28.0817ZM121.702 27.8649H121.341V27.1334H121.799C122.035 27.1334 122.304 27.1719 122.304 27.481C122.304 27.8364 122.032 27.8649 121.7 27.8649M0.791016 4.42096H5.38586V21.1371H13.8923V25.3722H0.791016V4.42096ZM15.9237 11.1666H20.3378V25.3644H15.9237V11.1666ZM18.1308 4.1082C18.6372 4.10829 19.1322 4.25836 19.5533 4.53944C19.9743 4.82051 20.3024 5.21997 20.4962 5.6873C20.6899 6.15462 20.7406 6.66883 20.6417 7.16491C20.5428 7.66098 20.2989 8.11663 19.9408 8.47426C19.5827 8.83188 19.1264 9.07541 18.6297 9.17406C18.133 9.2727 17.6181 9.22203 17.1503 9.02844C16.6824 8.83486 16.2825 8.50706 16.0012 8.08649C15.7198 7.66593 15.5696 7.17148 15.5696 6.66568C15.5696 6.32979 15.6359 5.99719 15.7646 5.68687C15.8933 5.37655 16.082 5.0946 16.3198 4.85711C16.5576 4.61962 16.84 4.43125 17.1507 4.30275C17.4614 4.17425 17.7945 4.10814 18.1308 4.1082ZM38.8027 4.41774H43.2169V16.9388L48.2196 11.1602H53.6315L47.8379 17.7333L53.5096 25.3703H47.9616L43.2757 18.3523H43.2178V25.3694H38.8036L38.8027 4.41774ZM22.7854 11.168H27.0243V13.1083H27.0846C27.508 12.3838 28.1205 11.7878 28.8566 11.3839C29.5927 10.9799 30.4249 10.7833 31.2642 10.8149C35.7404 10.8149 36.5644 13.7563 36.5644 17.5776V25.3635H32.1503V18.4607C32.1503 16.813 32.1199 14.695 29.8512 14.695C27.5568 14.695 27.2027 16.4892 27.2027 18.3408V25.3616H22.7886L22.7854 11.168ZM62.9274 16.6141C62.9358 16.2564 62.8715 15.9008 62.7383 15.5687C62.605 15.2366 62.4057 14.9349 62.1523 14.682C61.8989 14.4291 61.5968 14.2302 61.2642 14.0974C60.9315 13.9646 60.5754 13.9005 60.2173 13.9092C59.446 13.8613 58.6868 14.118 58.1033 14.624C57.5198 15.13 57.1587 15.8447 57.098 16.6141H62.9274ZM66.6665 22.9056C65.933 23.794 65.0109 24.5084 63.9669 24.9969C62.9229 25.4855 61.7831 25.736 60.6302 25.7304C56.2161 25.7304 52.682 22.7876 52.682 18.2306C52.682 13.6736 56.2156 10.7322 60.6302 10.7322C64.7561 10.7322 67.3434 13.6713 67.3434 18.2306V19.6129H57.098C57.2255 20.3969 57.6325 21.1084 58.2438 21.6163C58.8551 22.1243 59.6296 22.3944 60.4247 22.3771C61.053 22.3732 61.6703 22.2124 62.2205 21.9094C62.7707 21.6063 63.2362 21.1707 63.5748 20.6421L66.6665 22.9056ZM76.5441 14.5985C74.337 14.5985 73.0128 16.0704 73.0128 18.215C73.0128 20.3596 74.3366 21.8329 76.5441 21.8329C78.7516 21.8329 80.0786 20.3633 80.0786 18.215C80.0786 16.0667 78.7539 14.5985 76.5441 14.5985ZM84.1424 25.3616H80.0786V23.4788H80.0184C79.5086 24.1636 78.8473 24.7217 78.0861 25.1094C77.325 25.4972 76.4844 25.7042 75.63 25.7143C71.3887 25.7143 68.595 22.6572 68.595 18.3339C68.595 14.3634 71.0673 10.7175 75.1315 10.7175C76.9584 10.7175 78.6647 11.2167 79.6657 12.6004H79.7236V4.41636H84.1419L84.1424 25.3616ZM113.942 25.3699H109.528V18.4657C109.528 16.8194 109.498 14.7 107.232 14.7C104.933 14.7 104.581 16.4938 104.581 18.3459V25.3694H100.167V11.1717H104.405V13.112H104.464C104.888 12.3878 105.501 11.792 106.237 11.3882C106.973 10.9843 107.806 10.7874 108.645 10.8186C113.119 10.8186 113.944 13.7577 113.944 17.5812L113.942 25.3699ZM95.1865 9.23098C94.6798 9.23107 94.1846 9.08111 93.7633 8.80006C93.3419 8.51902 93.0136 8.11951 92.8196 7.65206C92.6257 7.1846 92.5748 6.67021 92.6736 6.17391C92.7723 5.67761 93.0162 5.2217 93.3744 4.86384C93.7326 4.50598 94.189 4.26223 94.6858 4.16342C95.1827 4.06462 95.6978 4.11519 96.1659 4.30875C96.634 4.5023 97.0341 4.83015 97.3156 5.25082C97.5972 5.6715 97.7475 6.16611 97.7476 6.67212C97.7477 7.00809 97.6815 7.34079 97.5528 7.65121C97.4241 7.96163 97.2355 8.2437 96.9977 8.48131C96.7598 8.71892 96.4775 8.90742 96.1667 9.03605C95.8559 9.16468 95.5229 9.23092 95.1865 9.23098ZM97.3935 25.3699H92.9748V11.1717H97.3935V25.3699ZM116.143 0.0200935H90.7567C90.1805 0.0135993 89.6253 0.23584 89.2131 0.637979C88.8009 1.04012 88.5654 1.58926 88.5584 2.16472V27.6243C88.5652 28.2 88.8005 28.7495 89.2127 29.1521C89.6249 29.5546 90.1802 29.7773 90.7567 29.7712H116.143C116.72 29.7784 117.277 29.5564 117.691 29.1538C118.105 28.7513 118.342 28.2012 118.35 27.6243V2.16289C118.341 1.58628 118.104 1.03652 117.691 0.634386C117.277 0.232257 116.72 0.0106511 116.143 0.0182559M121.74 25.9242C121.203 25.9293 120.69 26.1467 120.313 26.5287C119.936 26.9107 119.725 27.4263 119.728 27.9628C119.731 28.4992 119.946 29.0127 120.326 29.3911C120.707 29.7695 121.222 29.9819 121.759 29.9819C122.296 29.9819 122.812 29.7695 123.192 29.3911C123.573 29.0127 123.788 28.4992 123.791 27.9628C123.793 27.4263 123.583 26.9107 123.206 26.5287C122.829 26.1467 122.316 25.9293 121.779 25.9242H121.74ZM121.74 29.7496C121.388 29.7555 121.042 29.6569 120.745 29.4663C120.449 29.2757 120.216 29.0017 120.076 28.6789C119.936 28.3561 119.895 27.999 119.958 27.6528C120.021 27.3066 120.185 26.9868 120.43 26.7339C120.675 26.481 120.989 26.3063 121.334 26.2319C121.678 26.1575 122.037 26.1868 122.364 26.316C122.692 26.4452 122.974 26.6686 123.175 26.9579C123.375 27.2471 123.485 27.5893 123.491 27.9411C123.491 27.9512 123.491 27.9609 123.491 27.971C123.501 28.4325 123.327 28.8791 123.007 29.2124C122.688 29.5458 122.248 29.7387 121.786 29.7487H121.74" fill="#9CA3AF"/>
<path d="M122.062 28.0817C122.138 28.0824 122.213 28.0677 122.282 28.0383C122.352 28.0089 122.415 27.9655 122.467 27.9109C122.519 27.8563 122.56 27.7915 122.586 27.7206C122.612 27.6497 122.623 27.5743 122.618 27.4989C122.618 27.0856 122.369 26.8881 121.857 26.8881H121.029V29.052H121.34V28.1088H121.723L121.732 28.1202L122.325 29.052H122.658L122.019 28.0876L122.062 28.0817ZM121.702 27.8649H121.341V27.1334H121.799C122.035 27.1334 122.304 27.1719 122.304 27.481C122.304 27.8364 122.032 27.8649 121.7 27.8649M0.791016 4.42096H5.38586V21.1371H13.8923V25.3722H0.791016V4.42096ZM15.9237 11.1666H20.3378V25.3644H15.9237V11.1666ZM18.1308 4.1082C18.6372 4.10829 19.1322 4.25836 19.5533 4.53944C19.9743 4.82051 20.3024 5.21997 20.4962 5.6873C20.6899 6.15462 20.7406 6.66883 20.6417 7.16491C20.5428 7.66098 20.2989 8.11663 19.9408 8.47426C19.5827 8.83188 19.1264 9.07541 18.6297 9.17406C18.133 9.2727 17.6181 9.22203 17.1503 9.02844C16.6824 8.83486 16.2825 8.50706 16.0012 8.08649C15.7198 7.66593 15.5696 7.17148 15.5696 6.66568C15.5696 6.32979 15.6359 5.99719 15.7646 5.68687C15.8933 5.37655 16.082 5.0946 16.3198 4.85711C16.5576 4.61962 16.84 4.43125 17.1507 4.30275C17.4614 4.17425 17.7945 4.10814 18.1308 4.1082ZM38.8027 4.41774H43.2169V16.9388L48.2196 11.1602H53.6315L47.8379 17.7333L53.5096 25.3703H47.9616L43.2757 18.3523H43.2178V25.3694H38.8036L38.8027 4.41774ZM22.7854 11.168H27.0243V13.1083H27.0846C27.508 12.3838 28.1205 11.7878 28.8566 11.3839C29.5927 10.9799 30.4249 10.7833 31.2642 10.8149C35.7404 10.8149 36.5644 13.7563 36.5644 17.5776V25.3635H32.1503V18.4607C32.1503 16.813 32.1199 14.695 29.8512 14.695C27.5568 14.695 27.2027 16.4892 27.2027 18.3408V25.3616H22.7886L22.7854 11.168ZM62.9274 16.6141C62.9358 16.2564 62.8715 15.9008 62.7383 15.5687C62.605 15.2366 62.4057 14.9349 62.1523 14.682C61.8989 14.4291 61.5968 14.2302 61.2642 14.0974C60.9315 13.9646 60.5754 13.9005 60.2173 13.9092C59.446 13.8613 58.6868 14.118 58.1033 14.624C57.5198 15.13 57.1587 15.8447 57.098 16.6141H62.9274ZM66.6665 22.9056C65.933 23.794 65.0109 24.5084 63.9669 24.9969C62.9229 25.4855 61.7831 25.736 60.6302 25.7304C56.2161 25.7304 52.682 22.7876 52.682 18.2306C52.682 13.6736 56.2156 10.7322 60.6302 10.7322C64.7561 10.7322 67.3434 13.6713 67.3434 18.2306V19.6129H57.098C57.2255 20.3969 57.6325 21.1084 58.2438 21.6163C58.8551 22.1243 59.6296 22.3944 60.4247 22.3771C61.053 22.3732 61.6703 22.2124 62.2205 21.9094C62.7707 21.6063 63.2362 21.1707 63.5748 20.6421L66.6665 22.9056ZM76.5441 14.5985C74.337 14.5985 73.0128 16.0704 73.0128 18.215C73.0128 20.3596 74.3366 21.8329 76.5441 21.8329C78.7516 21.8329 80.0786 20.3633 80.0786 18.215C80.0786 16.0667 78.7539 14.5985 76.5441 14.5985ZM84.1424 25.3616H80.0786V23.4788H80.0184C79.5086 24.1636 78.8473 24.7217 78.0861 25.1094C77.325 25.4972 76.4844 25.7042 75.63 25.7143C71.3887 25.7143 68.595 22.6572 68.595 18.3339C68.595 14.3634 71.0673 10.7175 75.1315 10.7175C76.9584 10.7175 78.6647 11.2167 79.6657 12.6004H79.7236V4.41636H84.1419L84.1424 25.3616ZM113.942 25.3699H109.528V18.4657C109.528 16.8194 109.498 14.7 107.232 14.7C104.933 14.7 104.581 16.4938 104.581 18.3459V25.3694H100.167V11.1717H104.405V13.112H104.464C104.888 12.3878 105.501 11.792 106.237 11.3882C106.973 10.9843 107.806 10.7874 108.645 10.8186C113.119 10.8186 113.944 13.7577 113.944 17.5812L113.942 25.3699ZM95.1865 9.23098C94.6798 9.23107 94.1846 9.08111 93.7633 8.80006C93.3419 8.51902 93.0136 8.11951 92.8196 7.65206C92.6257 7.1846 92.5748 6.67021 92.6736 6.17391C92.7723 5.67761 93.0162 5.2217 93.3744 4.86384C93.7326 4.50598 94.189 4.26223 94.6858 4.16342C95.1827 4.06462 95.6978 4.11519 96.1659 4.30875C96.634 4.5023 97.0341 4.83015 97.3156 5.25082C97.5972 5.6715 97.7475 6.16611 97.7476 6.67212C97.7477 7.00809 97.6815 7.34079 97.5528 7.65121C97.4241 7.96163 97.2355 8.2437 96.9977 8.48131C96.7598 8.71892 96.4775 8.90742 96.1667 9.03605C95.8559 9.16468 95.5229 9.23092 95.1865 9.23098ZM97.3935 25.3699H92.9748V11.1717H97.3935V25.3699ZM116.143 0.0200935H90.7567C90.1805 0.0135993 89.6253 0.23584 89.2131 0.637979C88.8009 1.04012 88.5654 1.58926 88.5584 2.16472V27.6243C88.5652 28.2 88.8005 28.7495 89.2127 29.1521C89.6249 29.5546 90.1802 29.7773 90.7567 29.7712H116.143C116.72 29.7784 117.277 29.5564 117.691 29.1538C118.105 28.7513 118.342 28.2012 118.35 27.6243V2.16289C118.341 1.58628 118.104 1.03652 117.691 0.634386C117.277 0.232257 116.72 0.0106511 116.143 0.0182559M121.74 25.9242C121.203 25.9293 120.69 26.1467 120.313 26.5287C119.936 26.9107 119.725 27.4263 119.728 27.9628C119.731 28.4992 119.946 29.0127 120.326 29.3911C120.707 29.7695 121.222 29.9819 121.759 29.9819C122.296 29.9819 122.812 29.7695 123.192 29.3911C123.573 29.0127 123.788 28.4992 123.791 27.9628C123.793 27.4263 123.583 26.9107 123.206 26.5287C122.829 26.1467 122.316 25.9293 121.779 25.9242H121.74ZM121.74 29.7496C121.388 29.7555 121.042 29.6569 120.745 29.4663C120.449 29.2757 120.216 29.0017 120.076 28.6789C119.936 28.3561 119.895 27.999 119.958 27.6528C120.021 27.3066 120.185 26.9868 120.43 26.7339C120.675 26.481 120.989 26.3063 121.334 26.2319C121.678 26.1575 122.037 26.1868 122.364 26.316C122.692 26.4452 122.974 26.6686 123.175 26.9579C123.375 27.2471 123.485 27.5893 123.491 27.9411C123.491 27.9512 123.491 27.9609 123.491 27.971C123.501 28.4325 123.327 28.8791 123.007 29.2124C122.688 29.5458 122.248 29.7387 121.786 29.7487H121.74" fill="#9CA3AF"/>
<path d="M122.062 28.0817C122.138 28.0824 122.213 28.0677 122.282 28.0383C122.352 28.0089 122.415 27.9655 122.467 27.9109C122.519 27.8563 122.56 27.7915 122.586 27.7206C122.612 27.6497 122.623 27.5743 122.618 27.4989C122.618 27.0856 122.369 26.8881 121.857 26.8881H121.029V29.052H121.34V28.1088H121.723L121.732 28.1202L122.325 29.052H122.658L122.019 28.0876L122.062 28.0817ZM121.702 27.8649H121.341V27.1334H121.799C122.035 27.1334 122.304 27.1719 122.304 27.481C122.304 27.8364 122.032 27.8649 121.7 27.8649M0.791016 4.42096H5.38586V21.1371H13.8923V25.3722H0.791016V4.42096ZM15.9237 11.1666H20.3378V25.3644H15.9237V11.1666ZM18.1308 4.1082C18.6372 4.10829 19.1322 4.25836 19.5533 4.53944C19.9743 4.82051 20.3024 5.21997 20.4962 5.6873C20.6899 6.15462 20.7406 6.66883 20.6417 7.16491C20.5428 7.66098 20.2989 8.11663 19.9408 8.47426C19.5827 8.83188 19.1264 9.07541 18.6297 9.17406C18.133 9.2727 17.6181 9.22203 17.1503 9.02844C16.6824 8.83486 16.2825 8.50706 16.0012 8.08649C15.7198 7.66593 15.5696 7.17148 15.5696 6.66568C15.5696 6.32979 15.6359 5.99719 15.7646 5.68687C15.8933 5.37655 16.082 5.0946 16.3198 4.85711C16.5576 4.61962 16.84 4.43125 17.1507 4.30275C17.4614 4.17425 17.7945 4.10814 18.1308 4.1082ZM38.8027 4.41774H43.2169V16.9388L48.2196 11.1602H53.6315L47.8379 17.7333L53.5096 25.3703H47.9616L43.2757 18.3523H43.2178V25.3694H38.8036L38.8027 4.41774ZM22.7854 11.168H27.0243V13.1083H27.0846C27.508 12.3838 28.1205 11.7878 28.8566 11.3839C29.5927 10.9799 30.4249 10.7833 31.2642 10.8149C35.7404 10.8149 36.5644 13.7563 36.5644 17.5776V25.3635H32.1503V18.4607C32.1503 16.813 32.1199 14.695 29.8512 14.695C27.5568 14.695 27.2027 16.4892 27.2027 18.3408V25.3616H22.7886L22.7854 11.168ZM62.9274 16.6141C62.9358 16.2564 62.8715 15.9008 62.7383 15.5687C62.605 15.2366 62.4057 14.9349 62.1523 14.682C61.8989 14.4291 61.5968 14.2302 61.2642 14.0974C60.9315 13.9646 60.5754 13.9005 60.2173 13.9092C59.446 13.8613 58.6868 14.118 58.1033 14.624C57.5198 15.13 57.1587 15.8447 57.098 16.6141H62.9274ZM66.6665 22.9056C65.933 23.794 65.0109 24.5084 63.9669 24.9969C62.9229 25.4855 61.7831 25.736 60.6302 25.7304C56.2161 25.7304 52.682 22.7876 52.682 18.2306C52.682 13.6736 56.2156 10.7322 60.6302 10.7322C64.7561 10.7322 67.3434 13.6713 67.3434 18.2306V19.6129H57.098C57.2255 20.3969 57.6325 21.1084 58.2438 21.6163C58.8551 22.1243 59.6296 22.3944 60.4247 22.3771C61.053 22.3732 61.6703 22.2124 62.2205 21.9094C62.7707 21.6063 63.2362 21.1707 63.5748 20.6421L66.6665 22.9056ZM76.5441 14.5985C74.337 14.5985 73.0128 16.0704 73.0128 18.215C73.0128 20.3596 74.3366 21.8329 76.5441 21.8329C78.7516 21.8329 80.0786 20.3633 80.0786 18.215C80.0786 16.0667 78.7539 14.5985 76.5441 14.5985ZM84.1424 25.3616H80.0786V23.4788H80.0184C79.5086 24.1636 78.8473 24.7217 78.0861 25.1094C77.325 25.4972 76.4844 25.7042 75.63 25.7143C71.3887 25.7143 68.595 22.6572 68.595 18.3339C68.595 14.3634 71.0673 10.7175 75.1315 10.7175C76.9584 10.7175 78.6647 11.2167 79.6657 12.6004H79.7236V4.41636H84.1419L84.1424 25.3616ZM113.942 25.3699H109.528V18.4657C109.528 16.8194 109.498 14.7 107.232 14.7C104.933 14.7 104.581 16.4938 104.581 18.3459V25.3694H100.167V11.1717H104.405V13.112H104.464C104.888 12.3878 105.501 11.792 106.237 11.3882C106.973 10.9843 107.806 10.7874 108.645 10.8186C113.119 10.8186 113.944 13.7577 113.944 17.5812L113.942 25.3699ZM95.1865 9.23098C94.6798 9.23107 94.1846 9.08111 93.7633 8.80006C93.3419 8.51902 93.0136 8.11951 92.8196 7.65206C92.6257 7.1846 92.5748 6.67021 92.6736 6.17391C92.7723 5.67761 93.0162 5.2217 93.3744 4.86384C93.7326 4.50598 94.189 4.26223 94.6858 4.16342C95.1827 4.06462 95.6978 4.11519 96.1659 4.30875C96.634 4.5023 97.0341 4.83015 97.3156 5.25082C97.5972 5.6715 97.7475 6.16611 97.7476 6.67212C97.7477 7.00809 97.6815 7.34079 97.5528 7.65121C97.4241 7.96163 97.2355 8.2437 96.9977 8.48131C96.7598 8.71892 96.4775 8.90742 96.1667 9.03605C95.8559 9.16468 95.5229 9.23092 95.1865 9.23098ZM97.3935 25.3699H92.9748V11.1717H97.3935V25.3699ZM116.143 0.0200935H90.7567C90.1805 0.0135993 89.6253 0.23584 89.2131 0.637979C88.8009 1.04012 88.5654 1.58926 88.5584 2.16472V27.6243C88.5652 28.2 88.8005 28.7495 89.2127 29.1521C89.6249 29.5546 90.1802 29.7773 90.7567 29.7712H116.143C116.72 29.7784 117.277 29.5564 117.691 29.1538C118.105 28.7513 118.342 28.2012 118.35 27.6243V2.16289C118.341 1.58628 118.104 1.03652 117.691 0.634386C117.277 0.232257 116.72 0.0106511 116.143 0.0182559M121.74 25.9242C121.203 25.9293 120.69 26.1467 120.313 26.5287C119.936 26.9107 119.725 27.4263 119.728 27.9628C119.731 28.4992 119.946 29.0127 120.326 29.3911C120.707 29.7695 121.222 29.9819 121.759 29.9819C122.296 29.9819 122.812 29.7695 123.192 29.3911C123.573 29.0127 123.788 28.4992 123.791 27.9628C123.793 27.4263 123.583 26.9107 123.206 26.5287C122.829 26.1467 122.316 25.9293 121.779 25.9242H121.74ZM121.74 29.7496C121.388 29.7555 121.042 29.6569 120.745 29.4663C120.449 29.2757 120.216 29.0017 120.076 28.6789C119.936 28.3561 119.895 27.999 119.958 27.6528C120.021 27.3066 120.185 26.9868 120.43 26.7339C120.675 26.481 120.989 26.3063 121.334 26.2319C121.678 26.1575 122.037 26.1868 122.364 26.316C122.692 26.4452 122.974 26.6686 123.175 26.9579C123.375 27.2471 123.485 27.5893 123.491 27.9411C123.491 27.9512 123.491 27.9609 123.491 27.971C123.501 28.4325 123.327 28.8791 123.007 29.2124C122.688 29.5458 122.248 29.7387 121.786 29.7487H121.74" fill="#9CA3AF"/>
<path d="M122.062 28.0817C122.138 28.0824 122.213 28.0677 122.282 28.0383C122.352 28.0089 122.415 27.9655 122.467 27.9109C122.519 27.8563 122.56 27.7915 122.586 27.7206C122.612 27.6497 122.623 27.5743 122.618 27.4989C122.618 27.0856 122.369 26.8881 121.857 26.8881H121.029V29.052H121.34V28.1088H121.723L121.732 28.1202L122.325 29.052H122.658L122.019 28.0876L122.062 28.0817ZM121.702 27.8649H121.341V27.1334H121.799C122.035 27.1334 122.304 27.1719 122.304 27.481C122.304 27.8364 122.032 27.8649 121.7 27.8649M0.791016 4.42096H5.38586V21.1371H13.8923V25.3722H0.791016V4.42096ZM15.9237 11.1666H20.3378V25.3644H15.9237V11.1666ZM18.1308 4.1082C18.6372 4.10829 19.1322 4.25836 19.5533 4.53944C19.9743 4.82051 20.3024 5.21997 20.4962 5.6873C20.6899 6.15462 20.7406 6.66883 20.6417 7.16491C20.5428 7.66098 20.2989 8.11663 19.9408 8.47426C19.5827 8.83188 19.1264 9.07541 18.6297 9.17406C18.133 9.2727 17.6181 9.22203 17.1503 9.02844C16.6824 8.83486 16.2825 8.50706 16.0012 8.08649C15.7198 7.66593 15.5696 7.17148 15.5696 6.66568C15.5696 6.32979 15.6359 5.99719 15.7646 5.68687C15.8933 5.37655 16.082 5.0946 16.3198 4.85711C16.5576 4.61962 16.84 4.43125 17.1507 4.30275C17.4614 4.17425 17.7945 4.10814 18.1308 4.1082ZM38.8027 4.41774H43.2169V16.9388L48.2196 11.1602H53.6315L47.8379 17.7333L53.5096 25.3703H47.9616L43.2757 18.3523H43.2178V25.3694H38.8036L38.8027 4.41774ZM22.7854 11.168H27.0243V13.1083H27.0846C27.508 12.3838 28.1205 11.7878 28.8566 11.3839C29.5927 10.9799 30.4249 10.7833 31.2642 10.8149C35.7404 10.8149 36.5644 13.7563 36.5644 17.5776V25.3635H32.1503V18.4607C32.1503 16.813 32.1199 14.695 29.8512 14.695C27.5568 14.695 27.2027 16.4892 27.2027 18.3408V25.3616H22.7886L22.7854 11.168ZM62.9274 16.6141C62.9358 16.2564 62.8715 15.9008 62.7383 15.5687C62.605 15.2366 62.4057 14.9349 62.1523 14.682C61.8989 14.4291 61.5968 14.2302 61.2642 14.0974C60.9315 13.9646 60.5754 13.9005 60.2173 13.9092C59.446 13.8613 58.6868 14.118 58.1033 14.624C57.5198 15.13 57.1587 15.8447 57.098 16.6141H62.9274ZM66.6665 22.9056C65.933 23.794 65.0109 24.5084 63.9669 24.9969C62.9229 25.4855 61.7831 25.736 60.6302 25.7304C56.2161 25.7304 52.682 22.7876 52.682 18.2306C52.682 13.6736 56.2156 10.7322 60.6302 10.7322C64.7561 10.7322 67.3434 13.6713 67.3434 18.2306V19.6129H57.098C57.2255 20.3969 57.6325 21.1084 58.2438 21.6163C58.8551 22.1243 59.6296 22.3944 60.4247 22.3771C61.053 22.3732 61.6703 22.2124 62.2205 21.9094C62.7707 21.6063 63.2362 21.1707 63.5748 20.6421L66.6665 22.9056ZM76.5441 14.5985C74.337 14.5985 73.0128 16.0704 73.0128 18.215C73.0128 20.3596 74.3366 21.8329 76.5441 21.8329C78.7516 21.8329 80.0786 20.3633 80.0786 18.215C80.0786 16.0667 78.7539 14.5985 76.5441 14.5985ZM84.1424 25.3616H80.0786V23.4788H80.0184C79.5086 24.1636 78.8473 24.7217 78.0861 25.1094C77.325 25.4972 76.4844 25.7042 75.63 25.7143C71.3887 25.7143 68.595 22.6572 68.595 18.3339C68.595 14.3634 71.0673 10.7175 75.1315 10.7175C76.9584 10.7175 78.6647 11.2167 79.6657 12.6004H79.7236V4.41636H84.1419L84.1424 25.3616ZM113.942 25.3699H109.528V18.4657C109.528 16.8194 109.498 14.7 107.232 14.7C104.933 14.7 104.581 16.4938 104.581 18.3459V25.3694H100.167V11.1717H104.405V13.112H104.464C104.888 12.3878 105.501 11.792 106.237 11.3882C106.973 10.9843 107.806 10.7874 108.645 10.8186C113.119 10.8186 113.944 13.7577 113.944 17.5812L113.942 25.3699ZM95.1865 9.23098C94.6798 9.23107 94.1846 9.08111 93.7633 8.80006C93.3419 8.51902 93.0136 8.11951 92.8196 7.65206C92.6257 7.1846 92.5748 6.67021 92.6736 6.17391C92.7723 5.67761 93.0162 5.2217 93.3744 4.86384C93.7326 4.50598 94.189 4.26223 94.6858 4.16342C95.1827 4.06462 95.6978 4.11519 96.1659 4.30875C96.634 4.5023 97.0341 4.83015 97.3156 5.25082C97.5972 5.6715 97.7475 6.16611 97.7476 6.67212C97.7477 7.00809 97.6815 7.34079 97.5528 7.65121C97.4241 7.96163 97.2355 8.2437 96.9977 8.48131C96.7598 8.71892 96.4775 8.90742 96.1667 9.03605C95.8559 9.16468 95.5229 9.23092 95.1865 9.23098ZM97.3935 25.3699H92.9748V11.1717H97.3935V25.3699ZM116.143 0.0200935H90.7567C90.1805 0.0135993 89.6253 0.23584 89.2131 0.637979C88.8009 1.04012 88.5654 1.58926 88.5584 2.16472V27.6243C88.5652 28.2 88.8005 28.7495 89.2127 29.1521C89.6249 29.5546 90.1802 29.7773 90.7567 29.7712H116.143C116.72 29.7784 117.277 29.5564 117.691 29.1538C118.105 28.7513 118.342 28.2012 118.35 27.6243V2.16289C118.341 1.58628 118.104 1.03652 117.691 0.634386C117.277 0.232257 116.72 0.0106511 116.143 0.0182559M121.74 25.9242C121.203 25.9293 120.69 26.1467 120.313 26.5287C119.936 26.9107 119.725 27.4263 119.728 27.9628C119.731 28.4992 119.946 29.0127 120.326 29.3911C120.707 29.7695 121.222 29.9819 121.759 29.9819C122.296 29.9819 122.812 29.7695 123.192 29.3911C123.573 29.0127 123.788 28.4992 123.791 27.9628C123.793 27.4263 123.583 26.9107 123.206 26.5287C122.829 26.1467 122.316 25.9293 121.779 25.9242H121.74ZM121.74 29.7496C121.388 29.7555 121.042 29.6569 120.745 29.4663C120.449 29.2757 120.216 29.0017 120.076 28.6789C119.936 28.3561 119.895 27.999 119.958 27.6528C120.021 27.3066 120.185 26.9868 120.43 26.7339C120.675 26.481 120.989 26.3063 121.334 26.2319C121.678 26.1575 122.037 26.1868 122.364 26.316C122.692 26.4452 122.974 26.6686 123.175 26.9579C123.375 27.2471 123.485 27.5893 123.491 27.9411C123.491 27.9512 123.491 27.9609 123.491 27.971C123.501 28.4325 123.327 28.8791 123.007 29.2124C122.688 29.5458 122.248 29.7387 121.786 29.7487H121.74" fill="#9CA3AF"/>
<path d="M122.062 28.0817C122.138 28.0824 122.213 28.0677 122.282 28.0383C122.352 28.0089 122.415 27.9655 122.467 27.9109C122.519 27.8563 122.56 27.7915 122.586 27.7206C122.612 27.6497 122.623 27.5743 122.618 27.4989C122.618 27.0856 122.369 26.8881 121.857 26.8881H121.029V29.052H121.34V28.1088H121.723L121.732 28.1202L122.325 29.052H122.658L122.019 28.0876L122.062 28.0817ZM121.702 27.8649H121.341V27.1334H121.799C122.035 27.1334 122.304 27.1719 122.304 27.481C122.304 27.8364 122.032 27.8649 121.7 27.8649M0.791016 4.42096H5.38586V21.1371H13.8923V25.3722H0.791016V4.42096ZM15.9237 11.1666H20.3378V25.3644H15.9237V11.1666ZM18.1308 4.1082C18.6372 4.10829 19.1322 4.25836 19.5533 4.53944C19.9743 4.82051 20.3024 5.21997 20.4962 5.6873C20.6899 6.15462 20.7406 6.66883 20.6417 7.16491C20.5428 7.66098 20.2989 8.11663 19.9408 8.47426C19.5827 8.83188 19.1264 9.07541 18.6297 9.17406C18.133 9.2727 17.6181 9.22203 17.1503 9.02844C16.6824 8.83486 16.2825 8.50706 16.0012 8.08649C15.7198 7.66593 15.5696 7.17148 15.5696 6.66568C15.5696 6.32979 15.6359 5.99719 15.7646 5.68687C15.8933 5.37655 16.082 5.0946 16.3198 4.85711C16.5576 4.61962 16.84 4.43125 17.1507 4.30275C17.4614 4.17425 17.7945 4.10814 18.1308 4.1082ZM38.8027 4.41774H43.2169V16.9388L48.2196 11.1602H53.6315L47.8379 17.7333L53.5096 25.3703H47.9616L43.2757 18.3523H43.2178V25.3694H38.8036L38.8027 4.41774ZM22.7854 11.168H27.0243V13.1083H27.0846C27.508 12.3838 28.1205 11.7878 28.8566 11.3839C29.5927 10.9799 30.4249 10.7833 31.2642 10.8149C35.7404 10.8149 36.5644 13.7563 36.5644 17.5776V25.3635H32.1503V18.4607C32.1503 16.813 32.1199 14.695 29.8512 14.695C27.5568 14.695 27.2027 16.4892 27.2027 18.3408V25.3616H22.7886L22.7854 11.168ZM62.9274 16.6141C62.9358 16.2564 62.8715 15.9008 62.7383 15.5687C62.605 15.2366 62.4057 14.9349 62.1523 14.682C61.8989 14.4291 61.5968 14.2302 61.2642 14.0974C60.9315 13.9646 60.5754 13.9005 60.2173 13.9092C59.446 13.8613 58.6868 14.118 58.1033 14.624C57.5198 15.13 57.1587 15.8447 57.098 16.6141H62.9274ZM66.6665 22.9056C65.933 23.794 65.0109 24.5084 63.9669 24.9969C62.9229 25.4855 61.7831 25.736 60.6302 25.7304C56.2161 25.7304 52.682 22.7876 52.682 18.2306C52.682 13.6736 56.2156 10.7322 60.6302 10.7322C64.7561 10.7322 67.3434 13.6713 67.3434 18.2306V19.6129H57.098C57.2255 20.3969 57.6325 21.1084 58.2438 21.6163C58.8551 22.1243 59.6296 22.3944 60.4247 22.3771C61.053 22.3732 61.6703 22.2124 62.2205 21.9094C62.7707 21.6063 63.2362 21.1707 63.5748 20.6421L66.6665 22.9056ZM76.5441 14.5985C74.337 14.5985 73.0128 16.0704 73.0128 18.215C73.0128 20.3596 74.3366 21.8329 76.5441 21.8329C78.7516 21.8329 80.0786 20.3633 80.0786 18.215C80.0786 16.0667 78.7539 14.5985 76.5441 14.5985ZM84.1424 25.3616H80.0786V23.4788H80.0184C79.5086 24.1636 78.8473 24.7217 78.0861 25.1094C77.325 25.4972 76.4844 25.7042 75.63 25.7143C71.3887 25.7143 68.595 22.6572 68.595 18.3339C68.595 14.3634 71.0673 10.7175 75.1315 10.7175C76.9584 10.7175 78.6647 11.2167 79.6657 12.6004H79.7236V4.41636H84.1419L84.1424 25.3616ZM113.942 25.3699H109.528V18.4657C109.528 16.8194 109.498 14.7 107.232 14.7C104.933 14.7 104.581 16.4938 104.581 18.3459V25.3694H100.167V11.1717H104.405V13.112H104.464C104.888 12.3878 105.501 11.792 106.237 11.3882C106.973 10.9843 107.806 10.7874 108.645 10.8186C113.119 10.8186 113.944 13.7577 113.944 17.5812L113.942 25.3699ZM95.1865 9.23098C94.6798 9.23107 94.1846 9.08111 93.7633 8.80006C93.3419 8.51902 93.0136 8.11951 92.8196 7.65206C92.6257 7.1846 92.5748 6.67021 92.6736 6.17391C92.7723 5.67761 93.0162 5.2217 93.3744 4.86384C93.7326 4.50598 94.189 4.26223 94.6858 4.16342C95.1827 4.06462 95.6978 4.11519 96.1659 4.30875C96.634 4.5023 97.0341 4.83015 97.3156 5.25082C97.5972 5.6715 97.7475 6.16611 97.7476 6.67212C97.7477 7.00809 97.6815 7.34079 97.5528 7.65121C97.4241 7.96163 97.2355 8.2437 96.9977 8.48131C96.7598 8.71892 96.4775 8.90742 96.1667 9.03605C95.8559 9.16468 95.5229 9.23092 95.1865 9.23098ZM97.3935 25.3699H92.9748V11.1717H97.3935V25.3699ZM116.143 0.0200935H90.7567C90.1805 0.0135993 89.6253 0.23584 89.2131 0.637979C88.8009 1.04012 88.5654 1.58926 88.5584 2.16472V27.6243C88.5652 28.2 88.8005 28.7495 89.2127 29.1521C89.6249 29.5546 90.1802 29.7773 90.7567 29.7712H116.143C116.72 29.7784 117.277 29.5564 117.691 29.1538C118.105 28.7513 118.342 28.2012 118.35 27.6243V2.16289C118.341 1.58628 118.104 1.03652 117.691 0.634386C117.277 0.232257 116.72 0.0106511 116.143 0.0182559M121.74 25.9242C121.203 25.9293 120.69 26.1467 120.313 26.5287C119.936 26.9107 119.725 27.4263 119.728 27.9628C119.731 28.4992 119.946 29.0127 120.326 29.3911C120.707 29.7695 121.222 29.9819 121.759 29.9819C122.296 29.9819 122.812 29.7695 123.192 29.3911C123.573 29.0127 123.788 28.4992 123.791 27.9628C123.793 27.4263 123.583 26.9107 123.206 26.5287C122.829 26.1467 122.316 25.9293 121.779 25.9242H121.74ZM121.74 29.7496C121.388 29.7555 121.042 29.6569 120.745 29.4663C120.449 29.2757 120.216 29.0017 120.076 28.6789C119.936 28.3561 119.895 27.999 119.958 27.6528C120.021 27.3066 120.185 26.9868 120.43 26.7339C120.675 26.481 120.989 26.3063 121.334 26.2319C121.678 26.1575 122.037 26.1868 122.364 26.316C122.692 26.4452 122.974 26.6686 123.175 26.9579C123.375 27.2471 123.485 27.5893 123.491 27.9411C123.491 27.9512 123.491 27.9609 123.491 27.971C123.501 28.4325 123.327 28.8791 123.007 29.2124C122.688 29.5458 122.248 29.7387 121.786 29.7487H121.74" fill="#9CA3AF"/>
</svg>
